/* XPM */
static char *bb8b5de13c464b2ec225570cc4d938b7mN4ZGQvyJPGbaG4z[] = {
/* columns rows colors chars-per-pixel */
"80 80 242 2 ",
"   c #010101",
".  c #020709",
"X  c #03090B",
"o  c #0A0C0D",
"O  c #040907",
"+  c #030E11",
"@  c #090E10",
"#  c #031215",
"$  c #0D1314",
"%  c #01151A",
"&  c #041A1D",
"*  c #0C1718",
"=  c #131A1C",
"-  c #131718",
";  c #021D23",
":  c #081C20",
">  c #171E20",
",  c #022226",
"<  c #02242B",
"1  c #06282C",
"2  c #1C2526",
"3  c #182629",
"4  c #022C34",
"5  c #022A35",
"6  c #03333C",
"7  c #063237",
"8  c #163336",
"9  c #272C29",
"0  c #29312F",
"q  c #263837",
"w  c #373A36",
"e  c #30322D",
"r  c #19201E",
"t  c #2E403F",
"y  c #003643",
"u  c #033A44",
"i  c #023E4B",
"p  c #143E46",
"a  c #02424C",
"s  c #064147",
"d  c #024552",
"f  c #024A54",
"g  c #014D5B",
"h  c #02525D",
"j  c #194C51",
"k  c #3A4948",
"l  c #3A5554",
"z  c #2B4F50",
"x  c #025363",
"c  c #025965",
"v  c #025C6C",
"b  c #0C5C68",
"n  c #015D73",
"m  c #085363",
"M  c #2F5D64",
"N  c #02626E",
"B  c #016475",
"V  c #016B7C",
"C  c #02677A",
"Z  c #01717F",
"A  c #14646D",
"S  c #3F6572",
"D  c #31686F",
"F  c #424A46",
"G  c #425554",
"H  c #495C5B",
"J  c #4A6667",
"K  c #516564",
"L  c #536A69",
"P  c #416975",
"I  c #5A7878",
"U  c #517073",
"Y  c #667F7D",
"T  c #476160",
"R  c #6B807E",
"E  c #006D83",
"W  c #026F88",
"Q  c #007385",
"!  c #00768C",
"~  c #00798E",
"^  c #097889",
"/  c #007790",
"(  c #017B92",
")  c #0A7E93",
"_  c #017E9A",
"`  c #147E93",
"'  c #187C8D",
"]  c #297E8B",
"[  c #497886",
"{  c #507E8C",
"}  c #07808F",
"|  c #028194",
" . c #0C8194",
".. c #01839C",
"X. c #09879A",
"o. c #148395",
"O. c #14859A",
"+. c #1A8699",
"@. c #158A9B",
"#. c #1C8A9C",
"$. c #1B8595",
"%. c #13808E",
"&. c #218C9D",
"*. c #288A97",
"=. c #2A909D",
"-. c #368F94",
";. c #0084A3",
":. c #018CA3",
">. c #0086A9",
",. c #058CA8",
"<. c #1A8EA5",
"1. c #0392AA",
"2. c #0291A6",
"3. c #119BB3",
"4. c #258EA2",
"5. c #2493A4",
"6. c #2C94A2",
"7. c #2997A8",
"8. c #359AAA",
"9. c #3B9CAB",
"0. c #3597A6",
"q. c #359DB2",
"w. c #3CA1AE",
"e. c #3BA3B3",
"r. c #34A1B0",
"t. c #5B8A96",
"y. c #558C93",
"u. c #678887",
"i. c #64939C",
"p. c #7A9898",
"a. c #718B89",
"s. c #449DA9",
"d. c #5D9CA4",
"f. c #6694A1",
"g. c #699CA8",
"h. c #759FA5",
"j. c #44A1AE",
"k. c #43A3B2",
"l. c #4BA5B2",
"z. c #4CA9B6",
"x. c #46A8B7",
"c. c #55ACB8",
"v. c #46B2BE",
"b. c #5BB2BB",
"n. c #56B5BD",
"m. c #5FA3A4",
"M. c #68A4AA",
"N. c #76A1A2",
"B. c #77A7AA",
"V. c #67ACB5",
"C. c #79A9B2",
"Z. c #6CB4BC",
"A. c #67B7BC",
"S. c #77B6BA",
"D. c #7CA09E",
"F. c #48B5C5",
"G. c #5AB8C4",
"H. c #6DBDC5",
"J. c #65B8C3",
"K. c #71BDC4",
"L. c #6DC3CA",
"P. c #73C4CB",
"I. c #78C3C8",
"U. c #7DCBD4",
"Y. c #76C7D1",
"T. c #78D3DB",
"R. c #82999A",
"E. c #80A09E",
"W. c #86A8A5",
"Q. c #90B6B4",
"!. c #93C2BE",
"~. c #84C1BE",
"^. c #83BDC1",
"/. c #88C5C6",
"(. c #96CBC9",
"). c #82CDD3",
"_. c #8ECED3",
"`. c #86D4D6",
"'. c #8CD9DC",
"]. c #88D5D9",
"[. c #9CD6DA",
"{. c #93DADC",
"}. c #9BDADC",
"|. c #96D6D5",
" X c #94D0CD",
".X c #A4D1CD",
"XX c #A6DBD7",
"oX c #B1D1CE",
"OX c #AFE1DE",
"+X c #95DEE1",
"@X c #9EDFE0",
"#X c #89DFE5",
"$X c #A6DFE2",
"%X c #9CE3E6",
"&X c #9BE4E9",
"*X c #97E4E8",
"=X c #9BEDF2",
"-X c #96EAF2",
";X c #9EF0F4",
":X c #8FE2E5",
">X c #A3E5E6",
",X c #ACE6E5",
"<X c #ADE9E7",
"1X c #A1E5EA",
"2X c #AAE6E8",
"3X c #A4EAEB",
"4X c #ACEBEA",
"5X c #A4E9E6",
"6X c #BCE4E2",
"7X c #BAEBE6",
"8X c #B2EDEC",
"9X c #BBEDEC",
"0X c #B3E6E4",
"qX c #ADF1ED",
"wX c #B4F2EE",
"eX c #BCF1EE",
"rX c #A6EDF1",
"tX c #B3EEF1",
"yX c #ADF2F2",
"uX c #AEF8F7",
"iX c #AEF7F8",
"pX c #B4F3F3",
"aX c #BBF5F3",
"sX c #B3F8F5",
"dX c #BCF9F5",
"fX c #B2F7F8",
"gX c #BDF6F9",
"hX c #B5FBFB",
"jX c #BCFBFA",
"kX c #C2EAE7",
"lX c #C2F2ED",
"zX c #C8F0EB",
"xX c #C3F6F3",
"cX c #CAF6F4",
"vX c #C3F9F5",
"bX c #CAF9F5",
"nX c #C3FCFA",
"mX c #CBFEFC",
"MX c #D2FEFD",
"NX c #D5F9F5",
"BX c #D4F3ED",
"VX c #E1FAF6",
/* pixels */
"( ( ( ! c g g g D d.S.C.C.C.C.C.B.B.M.g.g.g.f.f.f.f.i.i.i.f.f.f.f.f.f.g.M.V.V.).1X1X3X[.i.P P P S S S S P P P P P [ [ [ { y.y.t.t.t.f.h.B.G .       # d E Q E E ",
"( ( ( / V B n C 0.[.eX8X9X8X9X8X8X8X8X8X8X8X9X9X9X9X9XeXeXeXeX9X9X9X9X9X8X8X<X8XpXpXpX8X<X,X,X,X,X<X<X<X<X<X<X<X<X2X2X2X2X4X4X4X4XqXwX8XMXa.o       # d E Q E E ",
"_ _ _ ( ! E E Q 9.%XdXaXaXaXaXaXsXsXsXsXsXdXjXjXjXjXnXnXnXnXnXnXvXvXvXdXaXaXaXpXpXpXpXpXpXpXpXpXpXpXsXsXsXsXsXsXsXpXsXuXiXuXuXuXuXsXhXdXMXp.$       % g W Q E E ",
"_ _ _ ( / ! W ! k.%XdXpXpXpXpXpXpXpXpXpXaXgXjXjXjXnXnXnXnXnXnXnXnXnXvXvXaXdXaXaXaXaXaXpXpXaXpXpXpXpXfXfXfXfXfXfXfXfXiXiXiXiXiXiXuXuXfXsXMXp.+       # d Q ! Q E ",
"_ _ _ _ 4.9.k.l.P.3XsXpXpXpXpXpXpXpXpXpXpXpXjXsX3X1X1X1X1X&X%X%X%X&X&X&X&X&X&X&X&X&X=X3XrXrXrX=X=X;X;XrX=X;X=X;X;X=X=X=X=X=X=X=X=X=X=X=XhXi.+       . ; d B Q E ",
"...._ _ J.{.}.+X1XpXpXpXpXpXpXpXpXpXpXpXpXpXjX4Xz.9.9.9.9.9.9.9.9.8.8.8.8.9.9.9.9.9.9.9.9.9.9.9.9.w.w.e.e.w.e.e.e.e.e.e.e.e.e.e.e.e.e.e.F.D X         . % 5 i c ",
";.;._ X.).eXaXpXpXpXpXpXpXpXpXpXpXpXpXpXpXpXsX>X$.E Q ! ! ~ ! ! ! ! ! ! Q Q Q Q Q E E E E E E E E E E E E E Q Q Q Q Q ! ! ! ! ~ ~ ~ ~ ~ | f .               # p ",
";.;._ X.).eXaXpXpXpXpXpXpXpXpXpXpXpXpXpXaXaXdX1X&.Q ~ ~ ~ ( ~ ~ ~ ~ ~ ~ ~ ~ ~ ! ! ! ! ! Q Q Q Q Q Q Q Q Q Q ! ! ! ~ ~ ~ ~ ~ ~ ~ ~ ~ ( ( ..f .               O 8 ",
";.;._ ;.).wXaXpXpXpXpXpXpXpXpXaXaXaXaXaXaXaXvX2X&.! ~ ( ( ( ( ( ( ( ( ( ( ~ ~ ~ ~ ~ ~ ~ ~ ~ ~ ~ ~ ~ ~ ~ ~ ~ ~ ~ ~ ~ ~ ( ( ( ( ( ~ ~ ( ~ ..g X               . 0 ",
",.<.<.7.].pXpXpXpXpXpXpXpXpX8X8X8X8X<X<X<X<X8X@X6.) )  . . .) ) ) ) ) ) ) ) ( ( ~ ~ ~ ~ ~ ~ ~ ~ ~ ~ ~ ~ ~ ~ ~ ~ ~ ~ ( (  . . . . . . .o.@.A 3 = - $ o       . 0 ",
"F.J.Y.).>XpXpXpXpXpXpXpXaX3X).P.P.H.H.J.A.A.A.A.l.z.l.l.k.k.k.k.k.k.k.k.j.j.w.@.! ( ~ ~ ~ ~ ~ ~ ~ ~ ~ ~ ~ ~ ~ ~ ~ ~ ~ #.9.l.z.z.z.z.c.c.J.g.u.I U L k O       9 ",
"BXcXaXpXpXpXpXpXpXpXpXpXnX].+.Q ~ ~ ~ ~ ~ ~ ~ o./.NXbXcXxXxXxXcXcXcXbXbXNXNXcXl.W ( ~ ~ ~ ~ ~ ~ ~ ! ~ ~ ~ ~ ~ ~ ~ ~ ~ c.6XBXzXlXlXlXlXeXeXeXaXxXcXNXW.$     . 9 ",
"BXcXxXpXpXpXpXpXpXpXpXpXbX].#.~ ~ | | | | | | @.Y.xXxXaXaXaXaXaXaXaXaXxXcXcXxXz.E ( ( ~ ~ ! ~ ! ~ ~ ~ ~ ~ ~ ~ ~ ~ ~ ( c.,XzX7X8X8X8X8X8X8X8XwXeXeXcXQ.$     . 9 ",
"NXbXxXaXpXpXpXpXpXpXaXaXmX].#.~ | | | | | ( } @.Y.xXaXaXpXaXpXpXaXaXaXaXaXxXvXz.E ( ( ( ! ! ~ ~ ~ ~ ~ ~ ~ ~ ~ ~ ! ! ( c.$X9X0X<X,X,X2X2X<X2X4X8X8XvXQ.-     . 9 ",
"NXbXbXaXpXpXpXpXpXpXaXaXMX].@.| | | | ( ~ ~ ~ o.I.aXaXaXpXpXpXpXpXpXpXaXaXaXvXc.E ( ! ! ! ! ~ ~ ~ ~ ~ ~ ~ ~ ~ ! ! Q ~ c.$X7X,X,X2X2X2X2X2X2X<X8X8XdXQ.=       9 ",
"R a.p.W.XXyXyXyXrX{.U.P.J.w. .| | | | @.6.0.9.l.].aXaXpXpXpXpXpXpXpXpXpXpXaXdX).k.z.x.e.#.~ ! ~ ~ ~ ~ ~ ( ~  .4.0.j.z.G.Y.U.U.U.U.U.U.U.U.U.U.).U.`.Z.P S S J U ",
"= = r q /.pXpXyX*Xz.@.@.@. .| | | | 5.P.$X,X,X>X<XpXpXpXpXpXpXpXpXpXpXpXpXpXaX8X>X2X<X@Xz.( ~ ~ ~ ~ ~ ~ ( ~ l.XX0X0X,XH.4.+.+.#.#.#.#.#.#.#.#.#.#.+.9._.|. X X|.",
"      2 /.pXpXpX'.8.! } | | | |  .| 7.].cXbXxXaXwXpXpXpXpXpXpXpXpXpXpXpXpXpXaXaXdXxXcXeXn.| ~ ~ ~ ~ ~ ~ ~ ~ G.zXcXcXlXA.` Q ! ! ~ ( ( ( ~ ~ ~ ~ ( ! 0.>XwX4X4X<X",
"      9 /.aXaXpX`.6.! | | | | | | ( 7.`.xXvXaXaXpXpXpXpXpXpXpXpXpXaXaXaXaXaXaXaXdXvXxXaXn.} ! ~ ~ ~ ~ ~ ~ ~ J.9XlXxX9XA.` ! ~ ( ( ( ( ( ( ( ( ( ( ~ 8.>X4X4X3X2X",
"      q (.nXxXaX`.=.~ | | | ( ( ( ~ 7.`.aXaXaXpXpXaXaXaXaXaXaXaXaXaXaXaXaXdXdXdXdXvXbXaXn.~ Q ! ~ ! ! ! ! / J.8X9XeX7XA.o.! ( ( ( _ _ ( ( ( ( ( _ ( 8.%X4X3X5X3X",
", , : q p.Q.(.(.S.*.~ | | |  .@.&.#.k.].pXaXpXyX*X+X+X+X+X+X+X%X+X+X+X+X+X+X{.{.{.{.}.].s.b h h v ^ $.#.&.4.Y.8X8X9X8XJ.o.! ( ( ( _ _ ( ( ( _ ( ( ( 7.T.'.].].:X",
"c v c 8 q k G H l A ~ | | X.l.K.I.I.).>XwXpXpX3XJ.w.w.k.k.k.k.k.k.k.k.k.e.w.w.w.w.w.w.0.M 1 & & 7 D H.I.P.P.}.8X8X9X7XJ.o.! ( ( ( ( ( ( ( ( ( ( ( ( O.r.e.e.x.L.",
"( ;...4 .       . s | | | 5.|.NXcXaXpXpXpXpXpX>X9.Q ! ~ ~ ( ~ ~ ~ ~ ~ ~ ~ ~ ~ ~ ~ ( | V 4 .     - I lXxX9X8X8X8X8X9X7XJ.+.! ( ( ( ( ( ( ( ( ( ( ( ( ( ( ! ! ( k.",
"( ;...4 .       . a | ..| 5.{.bXxXaXpXpXpXpXpX>X8.! ~ ~ ~ ( ~ ~ ~ ~ ~ ~ ~ ~ ~ ~ ~ ( | V 4 .     $ L 7XeX8X8X8X8X8X9X7XH.+.! ( ( ( ( ( ( ( ( ( ( ( ( ( ( ( ~ ( k.",
"_ >...5 .       . a | ..| 5.{.bXaXpXpXpXpXpXaX>X8.! ~ ( ( ( ( ( ~ ~ ~ ~ ~ ~ ~ ~ ~ ( | C 4 .     $ K 7XeX8X8X8X8X8X9X9XH.+.~ ( ( ( ( ( ( ( ( ( ( ( ( ( ( ( ~ ( x.",
"_ >...4 .       . a | ..| 5.{.bXaXpXpXpXpXpXaX>X0.! ~ ( ( ( ( ( ( ( ( ( ( ( ( ~ ~ ( _ C 4       @ K 7XaX8X4X<X2X2X,X2XJ.@.~ ( ( ( ( ( ( ( ( ( ( ( ( ( ( ( ~ ~ e.",
"_ ;...4 .       . a | ..( 5.{.vXpXpXpXpXpXpXaX>X0.! ~ ( ( ( ( ( ( ( ( ( ( ( ( ~ ~ ( ( C 4       o H 9XaX4X4X+XG.l.9.6.$.^ ~ ~ ~ ( ( ( ( ( ~ ~ ( ( ( ( ( ~ ~ ~ e.",
"_ ;...4 .   .   . a | ..( 5.{.vXpXpXpXpXpXpXaX2X0.! ~ ( ( ( ( ( ( ( ( ( ( ~ ~ ~ ~ ( _ V 4       o H 7XaXtX4XP.+.( ( ( ~ ~ ~ ~ ( ( ( ( ( ( ~ ( ( ( ( ( ( ~ ! ~ q.",
"..;...4 X   .   . a | ..( 5.{.dXpXpXpXpXpXaXxX2X8.! ( ( ( ( ( ( ( ( ( ( ( ( ( ~ ~ / ( V 4 .     o H 9XaXpX8XL. .~ ( ( ~ ~ ~ ~ ~ ~ ( ( ( ( ( ( ( ~ ~ ~ ~ ~ ! ~ q.",
"..;...4 X . .   . a | ..( 5.{.dXpXpXpXpXaXaXbX<X8.~ ( ( ( ( ( ( ( ( ( ( ( ( ( ( ( ! ( E 6 .     o H lXbXeXeXH. .~ ( ( ~ ~ ~ ~ ~ ( ! ~ ( ( ( ( ( ! ! ! ! ! ! ~ q.",
"..>...4 X . .   . a | | ( 6.[.xXpXpXpXpXaXaXbX8X8.( ( ( ( ( ( ( ( ( ( ( ( ( ( ( ( ~ ( E 6 .     o H kXbX9X8XH.) ! ~ ~ ~ ! ~ ~ ! ! / / / ( ( ( ( ! ! ! ! ! ! ~ q.",
";.>...4 X . .   . a | | ( 6.[.xXpXpX%XP.b.b.b.z.$.( ( ( ( ( ( ( ( ( ( ( ( ( ( ( ( ~ ~ Q c u 6 7 7 q L I I U D Q ! ! ! ! ! ! ! ! / / ! / / ( ( / ! ! ! ! ! ! ~ q.",
";.>...4 X .     . a ( | ( 6.[.vXwXsX{.9.%.%. . .~ ( ( ( ( ( ( ( ( ( ( ( ( ( ( ( ( ( ( ~ Q V C C c 1 $ $ $ $ , V ! ! ! ! ! ! ! ! / / / ( ( / / / ! ! ! ! ! ! ( q.",
";.>...4 O . .   . a ( | ( 6.[.vXwXdX'.0.~ ~ ~ ( ( ( ( ( ( ( ( ( ( ( ( ( ( ( ( ( ( ( ( ~ ~ ~ ~ | C <         # C ! ! ! ! ! ! ! ! / ! / / / / ! ! ! ! / ! ! ! ( e.",
";.>...4 X .     . a ( | ( 6.[.vXpXdX{.8.~ ~ ( ( ( ( ( ( _ ( ( ( ( ( ( ( ( ( ( ( ( ( ( ( ~ ~ ~ ( C <         X B ! ~ ~ ! ! ! ! ! ! ! ! ! / ! ! / / / ! ~ ~ ~ ( e.",
"/ / E 5 X .     X a ( | ( 6.[.vXpXdX{.8.( ( | | ( _ ( _ _ ( ( ( ( ( ( ( ( ( ( ( ( ( ( ~ ~ ( ( ( C 5         . v Q ! ! ! ! ! ! ! ! ! ! ! ! / / / / / / ! ! Q ^ s.",
"d i 6 % % ; , , 4 h ( | ( 6.[.vXwXdX{.8.( ( _ | | | _ _ _ ( ( ( ( ( ( ( ( ( ( ( ( ( ( ( ( ( ( ( C 5           u g x x n E ! ! ! ! ! ! ! ! ! ! ! ( ! E v g a s { ",
".     X f C Q Q V Q ( | ( 6.[.vXwXdX{.8.( ( _ _ _ _ ( ( ( ( ( ( ( ( ( ( ( ( ( ( ( ( ~ ( ~ ~ ( ( C 5               . . 1 v ! Q Q ! ! ! ! ! ! ! ! ! Q g #     o J ",
".     X h Q ! ! Z Q ( | ( 6.[.vXwXvX{.8.( ( ( ( ( ( ( ( ( ( ( ( ( ( ( ( ( ( ( ( ( ( ( ( ~ ~ ~ ( V 5                   < v ! Q Q ! ! ! ! ! ! ! ! ! ! g X     o J ",
"      X h Q ! ! Q Q _ _ ( =.|.dXpXvX{.8.( ( ( ( ( _ ( ( ( ( ( ( ( ( ( ( ( ( ( ( ( ( ( ~ ~ ~ ~ ( V 5                   ; v ~ ! ! ! ! / ! ! ! ! ! ! ! g X     o J ",
"      . h Q ! ! E Q | | ( =.|.dXwXdX{.8.( ( ( _ ( ( ( ( ( ( ( ( ( ( ( ( ( ( ( ( ( ( ! ~ ~ ~ ~ ( C 5                   & x ~ ! ! ! ! ~ ~ ~ ! ! Q Q Q g X     o K ",
"o o O # c Q Q ! Q Q ^ Z B ] |.dXwXdX'.8.( ( _ _ ( ( ( ( ( ( ( ( ( ( ( ( ( ( ( ( ( ( ~ ! ~ ~ ~ ( C 5                   + d V B C V E E E E E W ' ' *.M X     o K ",
"oXoX.XM.' Q ! Q f : & & + z (.dXwXdX'.8.( ( _ _ ( _ _ ( ( ( ( ( ( ( ( ( ( ( ( ( ( ( ~ ~ ~ ~ ~ ( C 5                     + % % % % % % & + M I.{.{.:Xi.$     o K ",
"VXNXbX/.$.! ~ Q u o       q !.dXwXdX'.8.~ ( _ _ _ _ _ _ ( ( ( ( ( ( ( ( ( ( ( ( ( ! ~ ~ ~ ~ ~ ( C 4                                       l  X4X4XqXB.$     o K ",
"NXNXbX/.$.! ( Q u o       q !.sXwXsX'.8.~ ~ ( ( _ _ ( ( ( ( ( ( ( ( ( ( ( ( / ! ( ~ ( ! ! ! ~ ( C 4                                       l  X4X4XqXB.$     o H ",
"NXNXbX/.$.~ ~ Q a X       q !.sXwXpX'.8.! ! ( ~ ( ( ( ( ( ( ( ( ( ( ( ( ( ( ( ( ( ~ ! ~ ! ! ~ ( C 4                                   .   l  X8X4XwXB.$     o H ",
"NXbXbX/.' V C v 6 @ o $ $ k (.aXwXpX+Xz.4.&.&.&.#.&.&.#.+.( ( ( ( ( ( ( ( ( ( ( ( ~ ~ ! ! ~ ~ ( V 4                               . $ 2 2 J !.XX.X Xu.o     o H ",
"bXnXvXS.j 6 6 5 1 G Y Y u.D.XXpX8XpX3X].P.P.P.P.P.I.I.I.I.&.( ( ( ( ( ( ( ( ( ( ( ~ ~ ! ~ ~ ~ ( V 4                             9 K u.u.N.u.U L J T t       O G ",
"bXnXdXN.2       2 W.MXlXeXeX8XwX8X8XwX8X8XpXwXwXwXeXlXcXxX9.( ( ( ( ( ( ( ( ( ( ! ! ! ! ~ ~ ~ ( V 4                             G OXvXwXmXp.-               O F ",
"bXnXdXN.2       > E.MX9XwX8X8X8X8X8X8X8X8XwXwXwXwXwXeXlXeX9.) ( ( ( ( ( ( ( ( ~ ~ ! ! ! ~ ~ ~ ( V 6                             G XXdX<XnXp.=               O F ",
"bXnXdXN.2       > E.mX8XqX4X4X8X8X8X8X8X8X8X8X8XwXwXeXlX9Xj.) ~ ( ( / / ( / ( ( ~ ~ ~ ! ~ ~ ~ ( V 6 .                           l XXsX3XjXN.>               O F ",
"bXnXdXN.2       = p.mX8X4X4X4X<X<X<X<X<X2X2X,X,X,X,X0X0X,Xl.o.) ) ( ( ! / ( ( ( ( ~ ( ( ~ ~ ~ ~ V u X . .                       l XXsX3XjXB.3 X .           O F ",
"bXnXjXN.2       = p.mX4XqXyX].H.K.K.Z.Z.Z.Z.Z.Z.V.V.M.M.M.V.c.l.j.0.o.! ~ ! ( ~ ! ! ! ( ~ ~ ~ ( Q c s 4 & X .                   l XXpX3XhXZ.A f 4 # .       O F ",
"bXnXjXN.2   .   - p.mX8XyX3Xk.Q ( ( ( ( ( ( ( ( ( ( ( ~ ^ _.7X9XlX9Xb.( ~ ~ ~ ~ / ~ ~ ! ~ ! ~ ~ ! E E E E V 7 .                 G XXpX3XjXH.` ( | B 4       O F ",
"bXnXjXB.2       $ p.mX8XyX5Xk.! ( _ ( ( ( ( _ _ _ _ | ( } _.7X7XlX9Xb.~ ~ ~ ~ ~ ! ~ ! ~ ! ~ ~ ~ ! E Q ! Q Q y .                 G XXpX2XjXP.` ( | C 6         F ",
"bXnXjXB.2       $ p.mX8XpX3Xk.! ( ( ( ( ( ( _ _ _ _ | (  ._.0X7XlX8Xb.~ ~ ! ~ ~ ! ! ! ! ! ! ! ! ! Q ! ! ! Q i X                 G XXpX4XnXP.) ( ( C 6 .       k ",
"bXnXdXC.3       - p.mXeXpX3Xk.! ( ( ( ( ( ( _ _ _ _ _ _ ) _.7X7XlX8Xc.~ ! ! ! Q ! ~ ! ! ! ! ! ! ! Q ! ! ! E i X                 H XXaX<XnXP.) ( ( V y .       w ",
"bXnXaX(.J z z z l i.I.K.L.A.=.~ ( ( ( ( ( ( _ _ ( ( _ ( ) H._.|.|._.-.u u u u c ~ ! ! ! ! ! ! ! Q v f a u 4 &         o 9 k T U p.}.%X).).s.^ ! ~ V y .       w ",
"bXaXaX<X X/./.~.V.0.#.&.#.+.) ~ ( ( ( ( ( ( ( _ ( ( ( ( ( 5.0.6.6.*.s X X X X i ( ! ~ ! ! ! ! ! V d & # X X           k R.!.(. XI.j.6.6.5.%.Q ! ! C y .       e ",
"bXaXaXpXpXpXsXsX].6.! ~ ( ( ~ ~ ( ( ( ( ( ( ( ( ( ( ( ( ( ( ~ ! ! B 1         u ( ! ~ ! ! ! ! ! C u .               O L oXeX<X3XP.' E ! | Q V Q ! C y .       e ",
"bXaXpXpXpXpXpXpX`.6.! ( ( ( ( ( ( ( ( ( ( ( ( ( ( ( ( ( ~ ( ( ~ ( V 5         u ( ~ ~ ! ! ! ! ~ C y                   K .XwX5X5XP.$.E ! | Q C Q ! C y .       9 ",
"bXaXpXpXpXyXpXyX`.6.! ( ( ( ( ( ( ( ( ( ( ( ( ( ( ( ( ( ( ( ( ( ( V 5         u ( ~ ~ ! ! ! ! ! B 6                 O K .X8X>X5XP.+.Q ! | Q C Q Q B y .       9 ",
"bXaXpXtXtXqXyXqX`.6.! ( ( ( ( ( ( ( ( ( ( ( ( ( ( ( ( ( ( ( ~ ~ ( V 5         u ( ~ ~ ! V v x h a <                   K .X8X>X%XP.+.Q ! _ V c v c f <         9 ",
"bXaXpXtX8XqXyXyX`.6.! ( ( ( ( ( ( ( ( ( ( / ( ( ( ( ( ( ~ ( ( ~ ( V 5         y ( ! ! ~ g & X X .                     K .X8X>X&XL.+.Q ! | N 6 1 ; + .         9 ",
"xXaXpXpXtXtXyXyX`.6.! ( ( ( ( ( ( ( ( ( ( ( ( ( / / ( ( ! / ( ( ( C 1         u ( ~ ~ ( d X                           K .X8X>X%XL.+.Q ! | f X                 9 ",
"xXaXpXtXpXpXpXyX`.6.! ( ( ( ( ( ( ( ( ( ( ( ( ( ! / ( ~ ! ( ~ ( ( B <         u ( ~ ~ ~ d X                           K .XwX5X5XP.+.Q Q | f X                 9 ",
"xXaXpXpXpXpXpXpX].6.! ( ( ( ( ( ( ( / / ( ( ( ( ! ! / ! ! ( ( ( ( B <         u _ ~ ~ ~ a .                           K .XwX<X5XP.+.Q ! | f .                 9 ",
"xXgXpXpXpXpXpXpX'.6.! ( ( ( ( ( ( ( ( / ( ! / / ! ! / ! ~ ( ( ~ ~ n <         u ( ! ! ~ d X   . . . . . .           O L .XpX4X3XL.o.Q Q ( f .                 e ",
"xXgXfXrXb.s.s.9.=.%.~ ~ ~ ~ ~ ~ ( ( ~ ! ! ! ! / ! ! / ~ Q 6 < < , & X         M ).S.^.^.B.p.p.p.p.p.p.p.p.R.R.R.R.p.p.M.b.b.z.x.6.^ ! Q ( d .                 w ",
"xXgXfX=X=.^ ) ) ~ ~ ~ ~ ~ ! ~ ~ ! ! ! ! ! ! ! ! ! ! ! ( V & . . .             I mXkX9X7X7X6X6X6X6X6X6X6X6X6X6XkXkXkX6XA.<.O.O. .( ! ! Q ( d .                 w ",
"bXgXfX=X4.Q ~ ~ ~ ~ ~ ~ ~ ! ~ ~ ! ! ! ! ! ! ! ! ! ! / _ V #                   I MXlXxXaXaXeXeXaXeXaX9X9X9X9X9XeXlXcX9XJ.X.( ~ ~ ! ! ! Q ~ d .                 k ",
"bXgXhX=X4.Q ~ ~ ~ ~ ~ ~ ! ! ! ! ! ! ~ ! ~ ~ ~ ~ ~ ~ ( _ E #                   I mXeXpXpX8X4X8X8X8X8X8X8X4X8X8X8X8XaX8XG.O.~ ~ ~ ! Q Q Q ~ a X               . k ",
"bXgXhX=X5.Q ~ ~ ~ ~ ~ ~ ~ ! ! ! ! ! ~ ~ ! ~ ~ ~ ( ( ( ( E #                   I nXqXyXyX3X&X&X&X&X&X&X%X%X%X%X%X%X%X%Xc.o.! Q Q Q Q Q V Q a X               O l ",
"bXgXhX-X5.! ( ( ( ( ~ ~ ~ ! ! ! ! ~ V g i i i i i a a a u X               .   I nXwXyXpX#XF.F.F.F.F.F.F.F.F.F.v.v.F.v.5.) ! Q E v a u u u , .         X % < 6 D ",
"bXgXhX-X5.! ( ( ( ( ( ~ ~ ~ ~ ! ! ( N <                                       I mXeXpXnXT.3.1.1.1.1.1.2.2.:.:.:.:.:....._ ( ~ ! f + . .             X 4 g v Q <.",
"bXnXhX-X7.( _ | _ ( ( ( ( ( ( ( ( ..B ,                                       Y MXlXaXmXT.3.1.1.1.1.1.1.1.1.:.:.:.:.:.:.......| g X                 % g Q _ ..3.",
"MXnXjX-X7.| ....| | | | | | | | | ..B ,                                   .   u.MXlXxXMXT.3.2.1.1.1.1.1.1.1.2.2.2.:.:.:.:.....| g X                 % x ! ( ..3.",
"bXaXpX#X&.Q Q Q Q Q Z Z Z Z Z Z Z Q x ;                               . . X   I pXXXXXOXZ.o.! ~ ~ ~ ~ ~ ~ ~ ~ ~ ~ ! ! Q Q E V C i X                 % x Q ( _ :.",
"(./.I.m.p ; ; & % % % # # # # # # # + .                             # , 5 6 , q J l l k 0 * + X X X X O O O O . . . . X X X X X .                   % x W ! ~ Q ",
"X X X .                                                           X i C n n i # O O .                                                               & x E E Q N "
};
