/* XPM */
static char *_1bd5de37f764d2bc1ba45f91a1a636btq83BTNnTUEMUDmc[] = {
/* columns rows colors chars-per-pixel */
"80 80 3 1 ",
"  c gray29",
". c gray42",
"X c gray47",
/* pixels */
"XXXXXXXXXXXXXXXXXXXXXXXXXXXXXXXXXXXXXXXXXXXXXXXXXXXXXXXXXXXXXXXXXXXXXXXXXXXXXXXX",
"XXXXXXXXXXXXXXXXXXXXXXXXXXXXXXXXXXXXXXXXXXXXXXXXXXXXXXXXXXXXXXXXXXXXXXXXXXXXXXXX",
"XXXXXXXXXXXXXXXXXXXXXXXXXXXXXXXXXXXXXXXXXXXXXXXXXXXXXXXXXXXXXXXXXXXXXXXXXXXXXXXX",
"XXXXXXXXXXXXXXXXXXXXXXXXXXXXXXXXXXXXXXXXXXXXXXXXXXXXXXXXXXXXXXXXXXXXXXXXXXXXXXXX",
"XXXX            XXXXXXXXXXXXXXXXXXXXXXXXXXXXXXXXXXXXXXXXXXXXXXXXXXXX        XXXX",
"XXXX            XXXXXXXXXXXXXXXXXXXXXXXXXXXXXXXXXXXXXXXXXXXXXXXXXXXX        XXXX",
"XXXX            XXXXXXXXXXXXXXXXXXXXXXXXXXXXXXXXXXXXXXXXXXXXXXXXXXXX        XXXX",
"XXXX            XXXXXXXXXXXXXXXXXXXXXXXXXXXXXXXXXXXXXXXXXXXXXXXXXXXX        XXXX",
"XXXX            XXXXXXXXXXXXXXXXXXXX        ....XXXXXXXXXXXXXXXX....        XXXX",
"XXXX            XXXXXXXXXXXXXXXXXXXX        ....XXXXXXXXXXXXXXXX....        XXXX",
"XXXX            XXXXXXXXXXXXXXXXXXXX        ....XXXXXXXXXXXXXXXX....        XXXX",
"XXXX            XXXXXXXXXXXXXXXXXXXX        ....XXXXXXXXXXXXXXXX....        XXXX",
"XXXX        XXXXXXXXXXXXXXXXXXXX            XXXXXXXXXXXXXXXXXXXXXXXXXXXX....XXXX",
"XXXX        XXXXXXXXXXXXXXXXXXXX            XXXXXXXXXXXXXXXXXXXXXXXXXXXX....XXXX",
"XXXX        XXXXXXXXXXXXXXXXXXXX            XXXXXXXXXXXXXXXXXXXXXXXXXXXX....XXXX",
"XXXX        XXXXXXXXXXXXXXXXXXXX            XXXXXXXXXXXXXXXXXXXXXXXXXXXX....XXXX",
"XXXXXXXXXXXXXXXXXXXXXXXXXXXXXXXXXXXX............XXXXXXXXXXXXXXXXXXXXXXXXXXXXXXXX",
"XXXXXXXXXXXXXXXXXXXXXXXXXXXXXXXXXXXX............XXXXXXXXXXXXXXXXXXXXXXXXXXXXXXXX",
"XXXXXXXXXXXXXXXXXXXXXXXXXXXXXXXXXXXX............XXXXXXXXXXXXXXXXXXXXXXXXXXXXXXXX",
"XXXXXXXXXXXXXXXXXXXXXXXXXXXXXXXXXXXX............XXXXXXXXXXXXXXXXXXXXXXXXXXXXXXXX",
"XXXXXXXXXXXX....        XXXXXXXXXXXXXXXXXXXXXXXXXXXX        ....XXXXXXXXXXXXXXXX",
"XXXXXXXXXXXX....        XXXXXXXXXXXXXXXXXXXXXXXXXXXX        ....XXXXXXXXXXXXXXXX",
"XXXXXXXXXXXX....        XXXXXXXXXXXXXXXXXXXXXXXXXXXX        ....XXXXXXXXXXXXXXXX",
"XXXXXXXXXXXX....        XXXXXXXXXXXXXXXXXXXXXXXXXXXX        ....XXXXXXXXXXXXXXXX",
"XXXXXXXXXXXX....            XXXXXXXXXXXXXXXXXXXXXXXX            XXXXXXXXXXXXXXXX",
"XXXXXXXXXXXX....            XXXXXXXXXXXXXXXXXXXXXXXX            XXXXXXXXXXXXXXXX",
"XXXXXXXXXXXX....            XXXXXXXXXXXXXXXXXXXXXXXX            XXXXXXXXXXXXXXXX",
"XXXXXXXXXXXX....            XXXXXXXXXXXXXXXXXXXXXXXX            XXXXXXXXXXXXXXXX",
"XXXXXXXXXXXXXXXX            XXXXXXXXXXXXXXXXXXXXXXXX            XXXXXXXXXXXXXXXX",
"XXXXXXXXXXXXXXXX            XXXXXXXXXXXXXXXXXXXXXXXX            XXXXXXXXXXXXXXXX",
"XXXXXXXXXXXXXXXX            XXXXXXXXXXXXXXXXXXXXXXXX            XXXXXXXXXXXXXXXX",
"XXXXXXXXXXXXXXXX            XXXXXXXXXXXXXXXXXXXXXXXX            XXXXXXXXXXXXXXXX",
"XXXXXXXXXXXXXXXXXXXXXXXXXXXXXXXXXXXXXXXX........XXXX        ........XXXXXXXXXXXX",
"XXXXXXXXXXXXXXXXXXXXXXXXXXXXXXXXXXXXXXXX........XXXX        ........XXXXXXXXXXXX",
"XXXXXXXXXXXXXXXXXXXXXXXXXXXXXXXXXXXXXXXX........XXXX        ........XXXXXXXXXXXX",
"XXXXXXXXXXXXXXXXXXXXXXXXXXXXXXXXXXXXXXXX........XXXX        ........XXXXXXXXXXXX",
"XXXXXXXXXXXXXXXXXXXXXXXXXXXXXXXX....        ....XXXXXXXXXXXXXXXXXXXXXXXXXXXXXXXX",
"XXXXXXXXXXXXXXXXXXXXXXXXXXXXXXXX....        ....XXXXXXXXXXXXXXXXXXXXXXXXXXXXXXXX",
"XXXXXXXXXXXXXXXXXXXXXXXXXXXXXXXX....        ....XXXXXXXXXXXXXXXXXXXXXXXXXXXXXXXX",
"XXXXXXXXXXXXXXXXXXXXXXXXXXXXXXXX....        ....XXXXXXXXXXXXXXXXXXXXXXXXXXXXXXXX",
"XXXXXXXXXXXX........XXXXXXXXXXXX....XXXX    XXXXXXXXXXXXXXXXXXXXXXXXXXXXXXXXXXXX",
"XXXXXXXXXXXX........XXXXXXXXXXXX....XXXX    XXXXXXXXXXXXXXXXXXXXXXXXXXXXXXXXXXXX",
"XXXXXXXXXXXX........XXXXXXXXXXXX....XXXX    XXXXXXXXXXXXXXXXXXXXXXXXXXXXXXXXXXXX",
"XXXXXXXXXXXX........XXXXXXXXXXXX....XXXX    XXXXXXXXXXXXXXXXXXXXXXXXXXXXXXXXXXXX",
"XXXXXXXX........            XXXXXXXXXXXXXXXXXXXXXXXXXXXXXXXXXXXXXXXXXXXXXXXXXXXX",
"XXXXXXXX........            XXXXXXXXXXXXXXXXXXXXXXXXXXXXXXXXXXXXXXXXXXXXXXXXXXXX",
"XXXXXXXX........            XXXXXXXXXXXXXXXXXXXXXXXXXXXXXXXXXXXXXXXXXXXXXXXXXXXX",
"XXXXXXXX........            XXXXXXXXXXXXXXXXXXXXXXXXXXXXXXXXXXXXXXXXXXXXXXXXXXXX",
"XXXXXXXXXXXXXXXX            XXXXXXXXXXXXXXXXXXXXXXXXXXXXXXXXXXXXXXXXXXXXXXXXXXXX",
"XXXXXXXXXXXXXXXX            XXXXXXXXXXXXXXXXXXXXXXXXXXXXXXXXXXXXXXXXXXXXXXXXXXXX",
"XXXXXXXXXXXXXXXX            XXXXXXXXXXXXXXXXXXXXXXXXXXXXXXXXXXXXXXXXXXXXXXXXXXXX",
"XXXXXXXXXXXXXXXX            XXXXXXXXXXXXXXXXXXXXXXXXXXXXXXXXXXXXXXXXXXXXXXXXXXXX",
"XXXXXXXX....XXXX        XXXXXXXXXXXXXXXXXXXXXXXX        XXXX........XXXXXXXXXXXX",
"XXXXXXXX....XXXX        XXXXXXXXXXXXXXXXXXXXXXXX        XXXX........XXXXXXXXXXXX",
"XXXXXXXX....XXXX        XXXXXXXXXXXXXXXXXXXXXXXX        XXXX........XXXXXXXXXXXX",
"XXXXXXXX....XXXX        XXXXXXXXXXXXXXXXXXXXXXXX        XXXX........XXXXXXXXXXXX",
"XXXX........XXXXXXXXXXXXXXXXXXXXXXXX........XXXX            ........XXXXXXXXXXXX",
"XXXX........XXXXXXXXXXXXXXXXXXXXXXXX........XXXX            ........XXXXXXXXXXXX",
"XXXX........XXXXXXXXXXXXXXXXXXXXXXXX........XXXX            ........XXXXXXXXXXXX",
"XXXX........XXXXXXXXXXXXXXXXXXXXXXXX........XXXX            ........XXXXXXXXXXXX",
"XXXX....XXXXXXXXXXXXXXXXXXXXXXXXXXXX........XXXXXXXXXXXXXXXXXXXXXXXXXXXXXXXXXXXX",
"XXXX....XXXXXXXXXXXXXXXXXXXXXXXXXXXX........XXXXXXXXXXXXXXXXXXXXXXXXXXXXXXXXXXXX",
"XXXX....XXXXXXXXXXXXXXXXXXXXXXXXXXXX........XXXXXXXXXXXXXXXXXXXXXXXXXXXXXXXXXXXX",
"XXXX....XXXXXXXXXXXXXXXXXXXXXXXXXXXX........XXXXXXXXXXXXXXXXXXXXXXXXXXXXXXXXXXXX",
"XXXXXXXX        XXXXXXXXXXXXXXXXXXXX        XXXXXXXXXXXXXXXXXXXX        XXXXXXXX",
"XXXXXXXX        XXXXXXXXXXXXXXXXXXXX        XXXXXXXXXXXXXXXXXXXX        XXXXXXXX",
"XXXXXXXX        XXXXXXXXXXXXXXXXXXXX        XXXXXXXXXXXXXXXXXXXX        XXXXXXXX",
"XXXXXXXX        XXXXXXXXXXXXXXXXXXXX        XXXXXXXXXXXXXXXXXXXX        XXXXXXXX",
"XXXX....        XXXXXXXXXXXXXXXXXXXX        XXXXXXXXXXXXXXXX            ....XXXX",
"XXXX....        XXXXXXXXXXXXXXXXXXXX        XXXXXXXXXXXXXXXX            ....XXXX",
"XXXX....        XXXXXXXXXXXXXXXXXXXX        XXXXXXXXXXXXXXXX            ....XXXX",
"XXXX....        XXXXXXXXXXXXXXXXXXXX        XXXXXXXXXXXXXXXX            ....XXXX",
"XXXX........XXXXXXXXXXXXXXXXXXXXXXXXXXXXXXXXXXXXXXXXXXXXXXXX................XXXX",
"XXXX........XXXXXXXXXXXXXXXXXXXXXXXXXXXXXXXXXXXXXXXXXXXXXXXX................XXXX",
"XXXX........XXXXXXXXXXXXXXXXXXXXXXXXXXXXXXXXXXXXXXXXXXXXXXXX................XXXX",
"XXXX........XXXXXXXXXXXXXXXXXXXXXXXXXXXXXXXXXXXXXXXXXXXXXXXX................XXXX",
"XXXXXXXXXXXXXXXXXXXXXXXXXXXXXXXXXXXXXXXXXXXXXXXXXXXXXXXXXXXXXXXXXXXXXXXXXXXXXXXX",
"XXXXXXXXXXXXXXXXXXXXXXXXXXXXXXXXXXXXXXXXXXXXXXXXXXXXXXXXXXXXXXXXXXXXXXXXXXXXXXXX",
"XXXXXXXXXXXXXXXXXXXXXXXXXXXXXXXXXXXXXXXXXXXXXXXXXXXXXXXXXXXXXXXXXXXXXXXXXXXXXXXX",
"XXXXXXXXXXXXXXXXXXXXXXXXXXXXXXXXXXXXXXXXXXXXXXXXXXXXXXXXXXXXXXXXXXXXXXXXXXXXXXXX"
};
