/* XPM */
static char *_935b431bc064da4e2329c226f7e96e5SSuWBfqWLIRHKkAo[] = {
/* columns rows colors chars-per-pixel */
"80 80 2 1 ",
"  c #987525",
". c #A37E28",
/* pixels */
"................................................................................",
"................................................................................",
"................................................................................",
"................................................................................",
"................................................        ............        ....",
"................................................        ............        ....",
"................................................        ............        ....",
"................................................        ............        ....",
"........        ........        ............            ............        ....",
"........        ........        ............            ............        ....",
"........        ........        ............            ............        ....",
"........        ........        ............            ............        ....",
"........        ............    ............    ................            ....",
"........        ............    ............    ................            ....",
"........        ............    ............    ................            ....",
"........        ............    ............    ................            ....",
"....................................................................    ........",
"....................................................................    ........",
"....................................................................    ........",
"....................................................................    ........",
"................................................................................",
"................................................................................",
"................................................................................",
"................................................................................",
"........................................    ....................................",
"........................................    ....................................",
"........................................    ....................................",
"........................................    ....................................",
"....................            ................................................",
"....................            ................................................",
"....................            ................................................",
"....................            ................................................",
"....................            ................................................",
"....................            ................................................",
"....................            ................................................",
"....................            ................................................",
"....................        ................        ............................",
"....................        ................        ............................",
"....................        ................        ............................",
"....................        ................        ............................",
"........................................    ....................................",
"........................................    ....................................",
"........................................    ....................................",
"........................................    ....................................",
"............        ................        ....................        ........",
"............        ................        ....................        ........",
"............        ................        ....................        ........",
"............        ................        ....................        ........",
"............        ............................................        ........",
"............        ............................................        ........",
"............        ............................................        ........",
"............        ............................................        ........",
"................................................................................",
"................................................................................",
"................................................................................",
"................................................................................",
"....................................................        ....................",
"....................................................        ....................",
"....................................................        ....................",
"....................................................        ....................",
"........    ............        ................            ....................",
"........    ............        ................            ....................",
"........    ............        ................            ....................",
"........    ............        ................            ....................",
"....        ............        ................            ....................",
"....        ............        ................            ....................",
"....        ............        ................            ....................",
"....        ............        ................            ....................",
"................    ............................................            ....",
"................    ............................................            ....",
"................    ............................................            ....",
"................    ............................................            ....",
"................    ....................................................    ....",
"................    ....................................................    ....",
"................    ....................................................    ....",
"................    ....................................................    ....",
"................................................................................",
"................................................................................",
"................................................................................",
"................................................................................"
};
