/* XPM */
static char *a583009ba2534b0699ea3b839374b4b8XL3cBLkxpHEKfbUJ[] = {
/* columns rows colors chars-per-pixel */
"80 80 190 2 ",
"   c #000101",
".  c #010609",
"X  c #020A0D",
"o  c #08090A",
"O  c #020D12",
"+  c #021215",
"@  c #091415",
"#  c #021916",
"$  c #01131A",
"%  c #031A1A",
"&  c #091A1B",
"*  c #011721",
"=  c #011C24",
"-  c #012027",
";  c #082123",
":  c #02242B",
">  c #09272B",
",  c #022C2E",
"<  c #0B2A2C",
"1  c #022D32",
"2  c #022F39",
"3  c #063236",
"4  c #0A3134",
"5  c #01323D",
"6  c #093438",
"7  c #013643",
"8  c #093640",
"9  c #023945",
"0  c #013C49",
"q  c #024246",
"w  c #084145",
"e  c #01444A",
"r  c #0A424A",
"t  c #014555",
"y  c #024A55",
"u  c #094E55",
"i  c #004558",
"p  c #014E5C",
"a  c #0A4F5C",
"s  c #01525D",
"d  c #03595D",
"f  c #014F62",
"g  c #015463",
"h  c #015A64",
"j  c #0A5B63",
"k  c #035568",
"l  c #015D6A",
"z  c #095D6A",
"x  c #005E71",
"c  c #01616E",
"v  c #006374",
"b  c #086673",
"n  c #006679",
"m  c #006D7D",
"M  c #00717D",
"N  c #006E82",
"B  c #096F84",
"V  c #007184",
"C  c #027184",
"Z  c #007284",
"A  c #007285",
"S  c #007385",
"D  c #007384",
"F  c #007386",
"G  c #017386",
"H  c #007584",
"J  c #007485",
"K  c #007585",
"L  c #007684",
"P  c #007685",
"I  c #007785",
"U  c #007486",
"Y  c #007586",
"T  c #007487",
"R  c #007587",
"E  c #007686",
"W  c #007786",
"Q  c #007687",
"!  c #007787",
"~  c #007485",
"^  c #007884",
"/  c #007885",
"(  c #007886",
")  c #007887",
"_  c #007987",
"`  c #007986",
"'  c #007A87",
"]  c #007986",
"[  c #00738B",
"{  c #007588",
"}  c #007489",
"|  c #007589",
" . c #007488",
".. c #007688",
"X. c #007788",
"o. c #007689",
"O. c #007789",
"+. c #00748A",
"@. c #00758A",
"#. c #00748B",
"$. c #00758B",
"%. c #00768A",
"&. c #00778A",
"*. c #00768B",
"=. c #00778B",
"-. c #00708D",
";. c #00728E",
":. c #00748C",
">. c #00758C",
",. c #00758D",
"<. c #00768C",
"1. c #00778C",
"2. c #00768D",
"3. c #00778D",
"4. c #00748E",
"5. c #00758E",
"6. c #00748F",
"7. c #00758F",
"8. c #00768E",
"9. c #00778E",
"0. c #00768F",
"q. c #00778F",
"w. c #00758A",
"e. c #007888",
"r. c #007889",
"t. c #007989",
"y. c #007B88",
"u. c #00788A",
"i. c #00798A",
"p. c #00798B",
"a. c #01788A",
"s. c #007B8B",
"d. c #007D89",
"f. c #007C8B",
"g. c #00798C",
"h. c #00788D",
"j. c #00798D",
"k. c #00788C",
"l. c #007A8C",
"z. c #007A8D",
"x. c #007B8D",
"c. c #00788E",
"v. c #00798E",
"b. c #00788F",
"n. c #007B8F",
"m. c #007B8E",
"M. c #007D8F",
"N. c #007C8E",
"B. c #007A8C",
"V. c #007490",
"C. c #007590",
"Z. c #007491",
"A. c #007591",
"S. c #007690",
"D. c #007790",
"F. c #007691",
"G. c #007791",
"H. c #007592",
"J. c #007692",
"K. c #007792",
"L. c #007693",
"P. c #007793",
"I. c #007691",
"U. c #007890",
"Y. c #007990",
"T. c #007891",
"R. c #007991",
"E. c #007A90",
"W. c #007A91",
"Q. c #007892",
"!. c #007893",
"~. c #007993",
"^. c #007A92",
"/. c #007C91",
"(. c #007D92",
"). c #007C93",
"_. c #007994",
"`. c #007A94",
"'. c #007A95",
"]. c #007B95",
"[. c #007B97",
"{. c #007C94",
"}. c #007D94",
"|. c #007B92",
" X c #007B98",
".X c #007E98",
"XX c #00808E",
"oX c #008192",
"OX c #018299",
"+X c #03889C",
/* pixels */
"n N -.-.,.,.,.,.,.,.S.S.S.S.S.S.S.,.,.,.,.,.S.,.S.S.S.S.S.S.S.W.{.s.d $       O n ]. X].].].W.S.S.S.S.S.S.S.S.S.S.S.S.S.S.S.S.S.S.S.S.S.S.S.W.].{.M.M : .     . ",
"m N [ ,.,.,.,.,.,.,.S.S.S.,.,.,.,.,.,.,.,.,.S.S.,.,.,.,.,.W.W.W.{.h.h %       X n W.].].W.W.W.S.S.S.S.S.S.S.S.S.,.,.S.S.S.S.S.S.S.S.S.S.S.W.W.W.(.M.M : .     . ",
"m V | | ,.,.| ,.,.,.,.,.,.,.,.,.,.,.,.,.,.,.,.,.,.,.,.,.,.,.h.W.(.h.l $       X x | ,.W.W.W.W.,.S.S.,.,.,.,.,.,.,.,.,.,.,.,.,.,.,.,.,.,.,.S.W.W.(.h.m : .       ",
"m V U | | | | | | | ,.,.,.,.,.,.,.,.,.,.| ,.,.,.| | ,.,.,.| h.h.h.U g +       O l V | h.h.h.,.,.,.,.,.,.,.,.,.,.,.,.,.,.,.,.,.,.,.,.,.,.,.,.h.W.h.s.n : .       ",
"m V V U U | U U | | | | | | | | | | | | | | | | | | | | | | | h.h.V k +       O h V U | h.| | | | | | | | | | | | | | | | | | | | | | | | | ,.h.h.s.n : .       ",
"m N V U U U U U V U U U | | | | | | | | | | | U U | | U U U | s.h.V k +       O h m V | | | | | | | | | | | | | | | | | | | | | | | | | | | | h.h.s.m : .       ",
"m N V U U V U U V U U U | | | | | s.| | | | | U U | | U U U s.s.h.V k +       O h m V | | | | | | | | | s.s.| | s.| | | | | | | | | | | | | s.h.M.s.m : .       ",
"M V V V U V U U U U U U U U U U U | | | U U U U U U U U U ` s.s.s.V k $       X h M U | | | | s.s.s.s.s.s.s.s.s.| s.s.| | | s.| U | | | U s.s.s.M.s.m : .       ",
"H V V V V V H H H H H H H H H H H U U U U H H U U U U H H U U ` ` H k $       X l V U | s.` ` ` ` ` ` s.` ` ` ` ` ` ` U U U ` U U U U U ` ` ` s.d.` n : .       ",
"V N m m m m m m m m m m m m m m m m m m N m m m M m m M m m m m m n f +       X z N N N V V V V V V V H H V V V V M V V V V V V V m m M m M M M M n l =         ",
"k g p p p s p p p p p p p p p p p p p p p p p p p p p s p p p y y t 7 X       . r p p p p s s s s s s s s s s s s s s s s s s s s p p p p p y y y t 0 $         ",
"$ $ $ $ $ $ $ $ + + + O O O O O O O O O + + O + + + + + + O O O O O X           X + + O + + + + + + + + + + + + + + + + + + + + + O O O O O O O O O X           ",
"                                                                                                                                                                ",
"                                                                                                                                                                ",
"                                                                                                                                                                ",
"                                                                                                                                                                ",
": , , , , , , , , , , , 1 < &         X = 1 1 , , , , , , , , , , , 3 1 1 1 1 1 1 1 1 1 1 1 1 1 , 1 1 1 1 6 ; .       . % , , , , , , , , , , , , , , , 1 , , > ",
"g g g g h h d h h h h h l j 4 .       % 0 h h h h h h h h h h h h h h h h h h h h h h h h h h h h h h l l b r O       . 2 g h h h h h d d h h h h h h h h h h a ",
"U | U H H U H U U U s.h.(.I w .       = s U U U U ` ` ` U U U U U U ` U U U U U U U U U U | | | | s.s.M.(.OXh %       X 0 U U H H ` ` H H H H H U ` ` ` U s.U m ",
"| | | U U U U U U | s.M.M.V 0 .       - s | | | | s.s.| | | | | | | | | | | | | U | | U | | | | | h.h.h.(.OXg %       X e s.V U U U U U H H U U U | s.s.s.s.| B ",
"| | | U U U U U U | s.h.h.V 0 .       - s U | | | | ,.| | | | | | | | | | | | [ [ | | | | | [ | | | ,.W.(.OXg $       X e | V U U U U U U U U U U | s.s.s.s.U B ",
"V U U U U U U U V | | h.h.N 9 .       - s U | | | | ,.| ,.| ,.| | | | | | | | [ [ | | | | | [ [ [ | ,.W.(.{.g $       O 0 U V U U U U U U U U U U | | s.s.` U C ",
"V V U U U U V V V | | h.h.N 0 .       - g V V | | | | | | | | | | | | | | | | | | | | | | | [ [ [ | ,.h.W.{.g $       O 0 U V U U U U U U V U U U U | | ` ` s.s.",
"[ V U V V U V V V | | ,.h.N 0 .       - g U | | | | | | | | | | | | | | | | [ | | | | | | | | | | ,.,.W.W.{.g $       O 0 U V U U U U U U U U U U U U | | ` ` s.",
"| [ V U U U V V V [ | ,.h.N 0 .       - g U | | | | | | | | | | | | | | | | [ | | | | | | | | | | | ,.h.W.{.f $       O 0 U V U U U U U U U U U U U U | s.s.` ` ",
"[ V V V | U V V V [ | h.s.N 0 .       - g U [ | | ,.,.,.| | | | | | | | | | [ | | | | | | | | [ | ,.,.h.W.(.f $       O e U V V U U U U U U U U U U | U s.s.` ` ",
"V V V V V V | | | | | h.h.N 0 .       - g | | | ,.,.,.| | | | | | | | | | | | | | | [ | | | [ | ,.,.,.W.W.(.f $       O e U V V U | U V V U U U | | | U | s.` ` ",
"V V | U | U U | | | | h.h.V 0 .       - g | | s.| ,.,.| h.s.| | | | | | | | | | | | | | | | | ,.,.,.,.W.(.{.g $       O e U | | | | | U U U U U U V | U | U ` ^ ",
"V U | | | U | | | | h.h.h.V 0 .       - g s.h.h.h.h.h.h.h.h.h.s.| h.s.s.s.| | | | | | | | | | | ,.h.h.W.(.OXk $       O e ` | s.s.s.s.| U U U | U U | | ` ` ` H ",
"H | | s.s.U U | | s.h.(.M.U 0 .       - h s.h.h.h.h.M.h.h.M.h.h.h.h.h.s.s.s.s.s.s.s.s.s.| | | | h.h.M.(.OXOXk $       X e d.s.s.s.s.s.U U ` U | U U ` s.` ` ` H ",
"^ ` ` ` U U U U s.s.M.(.M.U 0 .       : h d.M.M.M.M.M.M.M.M.M.M.M.d.M.h.s.s.s.s.s.s.s.s.s.s.s.s.h.M.M.(.oXOXk $       X e XXs.s.s.` ` ` ` ` ` ` ` ` ` ` y.y.` H ",
"d.d.s.s.s.s.s.s.d.M.oXoXoX| 0 .       : c oXoXoXM.M.oXoXoXoXoXoXXXXXXXM.M.M.M.M.M.M.M.M.M.M.M.M.M.M.(.oXOXOXg $       . e OXM.M.d.` ` ` ` ` ` ` ` ` ` ` y.y.s.V ",
"g h h g g g h h h h h h g p 1 .       & e c l l l l l l l l l l h h l l l l l l l l c c c v c c c c c c v v 0 O       . 6 m v v v c v v c c c c c c l c c c l k ",
"- : : : : : : : : : - - = * O         X = 1 1 1 1 1 1 , , : : : : : , , 1 1 1 1 2 2 5 5 5 5 5 3 1 1 1 1 1 2 =           & 8 5 5 5 7 7 7 5 5 5 5 5 5 5 5 5 5 2 2 ",
"  . . . . . . . . . . . .                 . . . . . . . . . . . . . . . . . . . . . . . . . . . . . . . . . .             . . . . . . . . . . . . . . . . . . . ",
"                                                                                                                                                                ",
"                                                                                                                                                                ",
"                                                                                                                                                                ",
"                                                                                                                                                                ",
"e e e e e e q q e e e q e e e e e e e e e e q q q q q q q q q e e w > .       . 3 0 e e e e q e e e e e e e e e e e e e e e e e e e e e e e e e e q 3 X         ",
"m V V M M M M M M M M M M M M M M M M M M M M M M m m m m M M V U M r X       X s m V M M M M M M M V V M V H V H H H H H V V V M M M M M m V V V M s %         ",
"U | | U U U U U U U ` ` U U U U ` ` ` ` ` U U ` ` ` ` ` s.s.M.(.oXs.y O       X g N | U U U U U U U U U U U U U U U U U U U U U U U U U U U s.h.M.s.l %         ",
"| | | s.` s.U U U U | | ` ` U U | U | | | | | | | | | | s.h.M.(.oX| t O       O h N | | | | U U V V U U U U U U U U U U U U U | | | | | | | h.(.oXs.l =         ",
"| | | | s.| U | | | | | | U U U | | | | | | | | | | | | | | h.(.(.U t O       O g N [ | | | | | V V V U U U U U U U U U U | U | | | | | | | h.(.(.s.l =         ",
"U V U | | | | | | U | | | | U | | | | | | U U | | | U U | | h.W.(.V t O       O g N [ | | | | | U U U U U V V U U U | | U U V | | | | | | ,.,.W.(.s.x =         ",
"V V U | U s.U U U U U U | | | | | | U | | | U | | | [ | | | ,.h.(.V i O       O g N [ | | | | [ V V U | V V V U | U | | | | | | | | | | ,.,.,.W.(.h.x =         ",
"V V | | U | U U U U U | U U U U | | | | | | [ | | | [ [ | | | h.W.V t O       O g N [ | | | | | V U | | U V V U U [ [ | | | [ | | | | | ,.,.,.W.W.h.v =         ",
"V V [ | U U U U U | | | | U U | | | [ | | | | | | | [ [ [ [ ,.,.W.V i O       O g N [ [ | | | [ [ | | | | V [ [ [ [ [ | | | [ | | | [ ,.,.,.,.W.W.h.v =         ",
"V V [ | | V U U | | | | | | [ | | | [ | | | | | | | | [ [ | ,.W.W.V i O       O g N [ | | | [ [ [ [ | [ | [ [ [ [ [ [ | | | [ | ,.,.,.,.,.,.S.W.(.h.v =         ",
"U V [ | | U | | | | | | | | | | | | | | | | [ [ | | | [ | ,.W.W.W.V i O       O h N [ | | | | [ [ [ [ | | [ | | | | | ,.,.| | [ ,.,.,.,.,.,.,.W.W.,.v =         ",
"U | | s.s.| | | | | | | | | | | | | | | | | | | | | | | | ,.h.W.(.| p O       O h V | ,.,.,.,.| | | | | | | [ | | ,.| ,.,.,.,.,.,.h.,.,.h.h.W.W.(.h.n =         ",
"U | s.h.h.s.s.| | | | | | | | s.| ,.,.,.s.| | | | ,.| | ,.h.h.W.(.| p O       X h V ,.h.h.,.,.,.| | ,.,.s.| | | | ,.,.,.,.,.,.,.,.h.,.,.h.W.h.W.(.h.n -         ",
"` s.s.s.s.s.s.s.s.s.s.| s.s.s.s.s.s.h.s.s.| | | s.s.s.| h.h.h.(.(.| p O       X h V ,.h.h.,.,.| | | | | s.s.| | s.,.| ,.h.,.| ,.h.h.,.h.h.h.h.W.(.M.n -         ",
"d.s.s.d.d.` ` ` ` ` s.` ` s.s.s.s.s.s.s.s.s.s.s.s.s.s.s.s.s.h.M.(.V i O       X l U s.s.s.s.s.| | s.s.s.s.s.| | s.| | s.s.| s.s.s.s.s.s.s.s.s.M.M.s.n -         ",
"(.M.h.s.s.s.s.s.s.s.d.d.d.M.M.M.M.M.M.M.M.M.M.M.M.M.M.M.M.M.M.M.M.U p +       X b h.(.M.h.s.s.h.h.h.h.M.M.M.M.h.h.h.h.h.h.h.M.M.M.h.h.s.h.h.s.M.h.| n -         ",
"y y y y y y y y y y y y y p p p p p p p p p s s s s s s p s s s p y 5 X       . r s g g g g g g g s s s s s s s s s s s s s s s s s s s p p p p p y e %         ",
"  . . X X X X X X X X X X O O O O O + + + + + + + + + + + + $ + + + X           X % $ $ * = = $ $ $ % $ $ $ $ $ % % $ $ $ % $ $ % $ % % $ $ $ + + O X           ",
"                                . . . . . .                 .                                                                                                   ",
"                                                                                                                                                                ",
"                                                                                                                                                                ",
"  .             . . .   .                 . . . .                           . . . .     . .               .                                           .     . . ",
"% % % % # # $ $ # + + + @ @ .         . @ % % % % % % % % % % % % % % % % % % % % % % % % % % % % % % % % & @           . + $ + @ + + + + $ $ # # # % % % % % + ",
"s g s s s s s s s s s s g u >         $ 5 s s s s s s s s s s s s s s s s s s s s s s s s s s s s s g g g z 8 .       . : s s s s s s s s s s s s s s s h h s u ",
"| ,.h.s.s.s.s.s.| h.W.(.OXC 8         = s | | | s.h.s.s.s.s.s.| | | s.s.s.| | | | | | s.h.s.| | ,.h.h.(.{.+Xg +       . 9 h.,.s.s.d.d.s.s.s.s.s.s.s.s.s.(.OXM.M ",
"U [ | | U | U | | | | W.(.N 9         = p V [ | | | | | | | | | U V U | U U U | | U U | | | | | | | ,.h.(.OXg +       . 9 s.| | | | | U U U U U U U | | h.(.s.m ",
"[ [ [ | | | V [ [ [ ,.W.h.N 9 .       = p V [ | | ,.,.| [ [ [ [ [ [ [ [ [ [ [ [ [ | [ V | | [ [ [ [ ,.S.W.{.g $       . 9 h.| | | | | | | V V | | | | | h.(.s.N ",
"V [ [ | | [ V [ A [ -.,.h.N 7 .       = p V [ | | | ,.| [ [ [ [ [ [ [ | | [ [ [ [ | [ [ [ | [ [ [ -.,.S.W.{.f $       . 9 | [ | | | | | U V V V V V | | W.(.| N ",
"V N [ | | V V V N A [ ,.h.N 7 .       = p V [ | [ [ | [ [ | [ [ [ [ [ | | | [ [ [ | | | [ | [ [ [ -.S.S.W..Xf $       . 9 | V | | | | U U V V V V V [ | h.W.| V ",
"N N [ [ | [ [ V V [ ,.S.,.N 9 .       = p [ [ ,.,.| ,.| [ [ [ [ [ [ [ | | [ | [ [ | ,.| [ [ [ [ -.-.,.S.W..Xk $       X 9 | [ | | | | | | V [ [ V V [ [ ,.h.| V ",
"V N [ [ [ [ V V [ [ ,.S.,.N 9 .       = p V [ ,.,.| | -.,.-.-.[ [ [ [ | [ [ [ [ | | | | [ [ [ [ -.,.,.S.W.{.f $       X 9 | [ | | | V U | [ | [ V | | [ ,.,.| V ",
"V V [ [ [ [ [ [ [ [ ,.S.,.N 9 .       = p V [ ,.,.,.-.-.-.-.-.-.-.-.-.-.[ [ [ [ [ [ [ [ [ [ [ -.-.-.-.S.W.{.f $       X 0 | [ | | [ [ [ [ V [ [ V [ | [ ,.,.| N ",
"V A [ [ [ [ [ [ [ -.,.S.h.N 0 .       = p [ [ ,.,.,.,.-.-.,.-.-.-.-.-.-.,.-.-.-.-.-.-.-.-.-.-.-.-.-.-.S.W.{.f $       X 0 | [ ,.| | [ [ [ [ V [ [ [ | [ ,.,.| N ",
"[ [ -.[ [ | [ [ -.-.,.W.W.N 0 .       = g | [ ,.,.,.S.,.,.S.,.,.,.,.,.,.,.,.,.,.,.,.,.,.,.,.-.-.,.,.S.S.W.{.k $       X 0 s.[ ,.,.| | | | [ [ [ | [ ,.,.W.W.| V ",
"| -.,.,.,.,.| [ -.-.,.W.W.N 0 .       = g | ,.,.,.,.,.,.S.S.,.,.,.,.,.,.,.,.,.,.,.,.,.,.,.-.-.-.,.,.S.S.].OXk $       X 0 s.| ,.,.,.,.,.| | | | | | ,.,.W.W.h.U ",
",.,.,.,.,.,.| [ -.,.S.W.W.V 0 .       = g h.,.S.,.,.,.,.,.,.,.,.,.,.,.,.,.,.,.,.,.,.,.,.,.,.,.,.,.S.W.W.].OXk $       X 0 M.| ,.,.,.,.,.,.,.| | ,.,.,.,.W.(.h.| ",
"W.,.,.| [ ,.| | ,.,.W.W.W.[ 0 .       = g h.h.W.h.h.h.,.h.h.h.,.,.h.h.,.,.,.,.,.,.,.,.h.,.,.,.,.,.W.W.(.{.OXk $       . 0 M.| ,.,.,.,.,.| ,.,.,.,.h.h.h.(.(.W.,.",
"(.,.[ | | | | | | | ,.h.,.N 0 .       = g h.h.h.h.s.s.| | | | | | | | | | | | | | | | | | | | | | h.h.h.W.{.f $       . 0 oX| | s.s.| | | | | | | | s.s.h.M.h.| ",
"N m n n n n n n n n n n n x 7 .       & y m n n n n n n n n n v v v v v v v v v v v v v v v n n n n n n n N t O       . 7 N n n n n n n n n n n n n n n n n n x ",
"0 9 9 9 7 9 7 9 9 9 0 9 7 5 =         O : 7 7 7 7 7 7 7 5 7 7 5 5 5 5 5 5 5 5 5 5 5 5 5 5 7 7 7 7 7 9 9 7 0 : .         = 9 7 7 7 9 9 7 7 7 7 7 7 7 7 9 9 9 5 5 ",
"o . X X X X X X X O O O X .               . . . . . . . . . . . . . . . . . . . . . . . . . . . X X X X O X .             . . X X X X X X X X X X X X X X X .   "
};
