/* XPM */
static char *cf540b1194b8480bef03e209cdd3bca4rt9c8E1cUVVpygBa[] = {
/* columns rows colors chars-per-pixel */
"80 80 227 2 ",
"   c #000001",
".  c #0B0502",
"X  c #020509",
"o  c #0B050A",
"O  c #07090B",
"+  c #110702",
"@  c #140903",
"#  c #1C0C03",
"$  c #160D0B",
"%  c #14110F",
"&  c #020E14",
"*  c #021116",
"=  c #021219",
"-  c #091718",
";  c #171210",
":  c #230E03",
">  c #2A0F01",
",  c #210F0A",
"<  c #251103",
"1  c #2B1303",
"2  c #28140A",
"3  c #331603",
"4  c #351803",
"5  c #3C1B03",
"6  c #35180B",
"7  c #391806",
"8  c #241914",
"9  c #3A2213",
"0  c #372316",
"q  c #031E2A",
"w  c #01252D",
"e  c #022C2E",
"r  c #0A2A2E",
"t  c #062B37",
"y  c #09333B",
"u  c #1D3130",
"i  c #383A2E",
"p  c #2A3935",
"a  c #323831",
"s  c #421D03",
"d  c #4A1E03",
"f  c #462104",
"g  c #4B2203",
"h  c #45210B",
"j  c #532603",
"k  c #5A2703",
"l  c #552904",
"z  c #5B2903",
"x  c #5D2A0B",
"c  c #57280A",
"v  c #492A18",
"b  c #5E2F12",
"n  c #632D04",
"m  c #6A2F04",
"M  c #692E09",
"N  c #663005",
"B  c #6C3104",
"V  c #6C340B",
"C  c #733404",
"Z  c #7A3603",
"A  c #7D3904",
"S  c #773708",
"D  c #6B3710",
"F  c #513624",
"G  c #38453C",
"H  c #7B4218",
"J  c #5A442A",
"K  c #5A4A34",
"L  c #5D533D",
"P  c #494432",
"I  c #6C4E2D",
"U  c #774C24",
"Y  c #6D512E",
"T  c #6B5332",
"R  c #625134",
"E  c #68502F",
"W  c #013C49",
"Q  c #043644",
"!  c #29334E",
"~  c #03424B",
"^  c #004D5B",
"/  c #044A56",
"(  c #01505E",
")  c #06585C",
"_  c #025563",
"`  c #015A62",
"'  c #095C6D",
"]  c #065B69",
"[  c #075D71",
"{  c #0E616F",
"}  c #086479",
"|  c #006D7D",
" . c #0A6776",
".. c #01717E",
"X. c #6B5144",
"o. c #615C57",
"O. c #813605",
"+. c #833C04",
"@. c #8B3E03",
"#. c #933F03",
"$. c #A13F03",
"%. c #8D4103",
"&. c #864004",
"*. c #944303",
"=. c #9C4502",
"-. c #9E4802",
";. c #97490B",
":. c #854818",
">. c #9C5219",
",. c #9D4F11",
"<. c #A24601",
"1. c #AA4601",
"2. c #A34901",
"3. c #AA4A01",
"4. c #A64D0B",
"5. c #B64A03",
"6. c #A95109",
"7. c #B4510A",
"8. c #B4570C",
"9. c #AB5415",
"0. c #AD5915",
"q. c #AB5619",
"w. c #AB5C1D",
"e. c #A25416",
"r. c #B45A14",
"t. c #B8621A",
"y. c #854C22",
"u. c #975421",
"i. c #965C32",
"p. c #885832",
"a. c #A25A21",
"s. c #B5662B",
"d. c #B76727",
"f. c #BA723E",
"g. c #AF6531",
"h. c #90633F",
"j. c #C36B23",
"k. c #966E4C",
"l. c #A16C41",
"z. c #B37649",
"x. c #957C70",
"c. c #C17F54",
"v. c #7D8478",
"b. c #BB8255",
"n. c #B48E74",
"m. c #8E977B",
"M. c #C88A4B",
"N. c #CD945A",
"B. c #CD996C",
"V. c #CC9668",
"C. c #CC9B77",
"Z. c #C9946D",
"A. c #D8AA6B",
"S. c #C8A17E",
"D. c #D4A775",
"F. c #016E83",
"G. c #066F85",
"H. c #007485",
"J. c #007986",
"K. c #00758A",
"L. c #007A8B",
"P. c #087082",
"I. c #007691",
"U. c #007B92",
"Y. c #007B98",
"T. c #2A7EB3",
"R. c #2974A3",
"E. c #6B7CD7",
"W. c #008092",
"Q. c #2D85A9",
"!. c #2F85AF",
"~. c #4B9EAC",
"^. c #4396AB",
"/. c #4799B0",
"(. c #4CA1AD",
"). c #51A1AE",
"_. c #658C87",
"`. c #6C80DB",
"'. c #7481D5",
"]. c #BB9E81",
"[. c #BCAB98",
"{. c #BEB49B",
"}. c #BDB08E",
"|. c #BEB6A7",
" X c #B7AEA8",
".X c #8C9685",
"XX c #C9A38A",
"oX c #D2A686",
"OX c #C8AE9B",
"+X c #D6AE9A",
"@X c #C3B39A",
"#X c #D6B39C",
"$X c #D9B398",
"%X c #C5B2A4",
"&X c #D8B8A7",
"*X c #D4BAB3",
"=X c #D5BBB7",
"-X c #CF9F80",
";X c #DFC3AC",
":X c #DBCBBC",
">X c #E2C9B2",
",X c #E2CA9C",
"<X c #B5B4C7",
"1X c #8694FC",
"2X c #8E96FD",
"3X c #8E95FD",
"4X c #9196FE",
"5X c #9299FE",
"6X c #9A9DFC",
"7X c #9EA1FC",
"8X c #BDB7E9",
"9X c #AAABF6",
"0X c #A4A5FC",
"qX c #A6AAF8",
"wX c #AEB4F8",
"eX c #B3B3F5",
"rX c #B7B8F9",
"tX c #8E95CC",
"yX c #D2BDC4",
"uX c #D3BDC8",
"iX c #C8BAC3",
"pX c #C0BFED",
"aX c #BFC6F9",
"sX c #D7C3C8",
"dX c #DED2D3",
"fX c #E2CEC4",
"gX c #C6C6F7",
/* pixels */
"} F.K.K.K.K.K.K.K.K.I.I.I.I.I.I.I.K.K.K.K.K.K.I.I.I.I.I.I.I.I.U.U.L.) =       & | U.Y.U.U.U.U.I.I.I.I.I.I.I.I.I.I.I.I.I.I.I.I.I.I.I.I.I.I.I.U.U.U.L...w X     o ",
"| F.K.K.K.K.K.K.K.K.I.I.I.I.I.I.K.Q.~.~.^.!.T.T.T.T.T.!.~.(.~.(.(.(._.o.! ! ! ! R.!.!./.(.(.~.~.~.~.~.!.T.T.T.T.T.!./.).~.).Q.I.I.I.I.I.I.U.U.U.U.L...w X     X ",
"| H.K.K.K.K.K.K.K.K.K.I.K.K.K.K.K._.A.A.:X7X1X1X1X1X3XqX>XA.A.A.A.A.A.;XqX1X1X1X1X1X7XfXA.A.A.A.A.A.,X9X1X1X1X1X1X6XdXD.A.A.m.K.K.K.K.K.K.I.L.U.U.L.F.w X       ",
"| H.H.K.K.K.K.K.K.K.K.K.K.K.K.K.K.R 1.5.$X0X5X3X3X3X5X9XoX1.2.<.<.<.2.D.9X3X1X1X3X3X0X&X3.<.<.<.<.<.N.eX5X3X3X3X3X0X=X7.3.3.T K.K.K.K.K.K.K.L.U.U.L.| w X       ",
"| F.H.H.H.K.H.H.K.K.K.K.K.K.K.K.K.L 1.5.+X0X5X5X3X3X4X9XS.3.2.2.2.2.2.D.9X5X3X3X3X3X0X#X3.2.2.2.2.<.N.eX5X3X3X3X3X7X=X7.3.3.T K.K.K.K.K.K.K.K.L.L.L.| w X       ",
"| F.H.H.H.H.H.H.H.H.H.H.K.K.K.K.K.L 1.5.+X0X5X5X3X3X4X9XC.3.2.2.2.2.2.D.9X5X3X3X5X3X0X#X3.2.2.2.2.<.V.eX5X5X3X3X3X7X=X7.1.1.T K.K.K.K.K.K.K.K.L.L.L.| w X       ",
"| F.H.H.H.H.H.H.H.H.H.H.K.K.K.K.K.L 1.5.+X0X5X5X5X5X5X9XC.3.2.2.2.2.2.D.9X5X3X3X5X3X0X#X3.2.2.2.2.<.V.eX5X5X5X3X5X7X*X7.1.<.T K.K.K.K.K.K.K.L.L.L.L.| w X       ",
"..H.H.H.H.H.H.H.H.H.H.H.H.H.H.H.H.L 1.5.+X0X5X5X5X5X5X9XS.3.3.3.2.2.2.D.9X3X5X3X3X3X0X#X7.3.3.2.2.2.V.eX5X5X4X5X5X6X*X7.3.3.T H.H.K.K.K.H.L.L.L.L.L.| w X       ",
"H.H.H.H.H.H.H.H.H.H.H.H.H.H.H.H.H.G k M %XrXwXeXeXeXeXgX].z c l l j z S.gXwXwXwXwXeXgXOXN c l l j k n.gXwXeXeXeXeXrX*XD k k G H.H.H.H.H.J.J.J.L.L.J.| w X       ",
"H.F.| | | | | | | | | | | | | | | p s g z.C.B.Z.x.Z.B.B.l.s 5 # # 7 5 l.C.B.Z.x.Z.V.B.z.f 5 < @ 7 7 i.C.B.Z.x.n.B.B.b.c s 1 t H.H.| | ..| ........| [ q         ",
"_ _ ^ ^ ^ ( ^ ^ ^ ^ ^ ^ ^ ^ ^ ^ ^ J <.3.<.<.1.@.> *.3.<.2.2.2.g f -.-.<.<.<.*.> @.3.<.<.2.2.z 5 -.-.2.<.<.=.3 Z 3.1.<.2.3.C q ( ( ^ ^ ^ ^ ^ ^ / / / W =         ",
"= = = = = = = = * * * & & & & & & b <.<.2.2.3.%.< *.3.2.2.-.2.j g 2.=.-.-.2.*.< &.3.2.-.-.2.z 5 -.=.-.-.2.-.3 A 3.2.2.<.1.C & * * & & & & & & & & & X           ",
"                                  2 j j j g j f @ f g g g g j 1 < j g g g g f @ 5 j g g g j 4 # g g g g j g @ 5 j g g g j 7 X                                   ",
"                                  2 j d @ 7 g g f f f 1 @ s f f f f s @ 1 f f f f s 3 + s f f f f f # : f f f f f 7 + s j j 6                                   ",
"                                  x 1.=.1 C <.=.=.=.<.B 3 =.=.=.=.=.*.4 m -.*.*.*.=.C < *.*.*.*.=.=.5 j -.*.*.*.=.+.< *.3.1.V                                   ",
"                                  x 1.=.1 S <.=.=.=.<.B 4 =.=.*.*.=.*.4 N 2.=.*.*.=.C < *.=.=.=.=.=.5 j 2.=.=.=.<.+.< %.<.<.V                                   ",
"w e e e e e e e e e e e e r -     2 d d @ 4 f s s s s 1 @ 5 s s s s f # 1 f s s s d 7 @ s f s s s s # # s s s s d 5 @ s g d 0 e e e e e e e e e e e e e e e e r ",
"_ _ _ _ ` ` ) ` ` ` ` ` ] ] y X   6 k k k j j 5                 < j j j j j s . 5 j j j j j 1                 7 j j j j k 7 w ` ` ` ` ` ` ` ` ` ` ` ` ` ` ` _ ( ",
"H.K.H.H.H.H.H.H.H.H.L.L.U.J.~ X   x <.<.<.<.2.+..               g 2.<.<.-.<.@.< A <.*.*.=.2.z               . Z <.<.<.<.3.C t H.H.J.H.H.H.H.H.H.H.J.J.J.H.L.H.| ",
"K.K.K.H.H.H.H.H.H.K.L.L.L.H.W X   x <.<.=.=.<.+..               g 2.=.=.=.=.@.< A =.*.*.*.2.c               . C <.=.=.=.<.C t H.H.H.H.H.H.H.H.H.H.K.L.L.L.L.K.P.",
"K.K.K.H.H.H.H.H.H.K.L.L.L.H.W X   2 s s 5 5 s 7 .               # s s 5 5 s 5 @ 4 s 5 5 5 s <                 3 s s 5 5 s 3 t H.H.H.H.H.H.H.H.H.H.K.L.L.L.L.H.P.",
"H.H.H.H.H.H.H.H.H.K.K.L.L.F.W X   6 n k # s n n g               1 z j # 4 c k z z k s @ j z n 3               s n f @ j n n P H.H.H.H.H.H.H.H.H.H.K.K.L.L.J.H.P.",
"H.H.H.H.H.H.H.H.H.K.K.L.L.F.W X   x 1.<.3 Z <.<.O..             j 3.<.7 m 2.-.<.<.2.Z 1 *.<.<.j             . Z 1.@.< #.1.1.I H.H.H.H.H.H.H.H.H.H.H.K.K.J.J.J.L.",
"K.H.H.H.H.H.H.H.H.K.K.K.L.F.W X   x <.=.1 C <.=.Z .             g <.=.4 n =.*.*.*.=.C < %.*.*.j             . C <.@.< @.<.$.I H.H.H.H.H.H.H.H.H.H.H.H.K.K.J.J.L.",
"K.K.H.H.H.H.H.H.H.K.K.K.L.F.W X   , 5 5 @ 1 7 7 1               # 5 5 # < 7 4 3 3 7 1 @ 4 7 3 #               < s 3 + 3 5 7 p H.H.H.H.H.H.H.H.H.H.H.H.K.L.L.J.J.",
"K.H.H.H.K.H.H.H.H.K.K.L.L.F.W X   6 m m B m m j .               1 n n n m m l @ g n n N n m 4                 f n n m m m d y H.H.H.H.H.H.H.H.H.H.H.K.H.L.L.J.J.",
"H.H.H.H.H.H.K.K.K.K.K.L.L.F.W X   x <.<.<.<.2.+..               g 2.=.=.=.<.#.< A -.*.*.=.2.k               . Z <.<.<.<.1.C Q H.H.K.H.H.H.H.H.H.K.K.K.H.H.J.J.J.",
"H.H.K.H.K.H.H.K.K.K.K.L.L.H.W X   x =.=.*.*.=.+..               g =.*.*.*.*.+.< A *.*.*.*.=.j               . C =.*.*.*.<.B Q K.K.K.K.H.H.H.H.H.H.H.K.H.H.H.J.J.",
"H.H.K.K.K.H.K.K.K.K.L.L.L.H.W X   # 3 3 1 1 3 1 .               # 3 3 1 1 3 1 + 1 3 1 1 1 3 #                 : 3 3 1 3 3 < Q L.L.L.L.K.H.H.H.K.H.H.K.K.L.J.J.H.",
"H.H.K.K.J.H.H.K.K.L.L.U.L.H.W X   s C m # j C C c .             3 B m < s B B B B m g # n B C 5               g B c # n C C P L.L.L.L.H.H.J.H.K.H.H.J.L.L.L.J.H.",
"J.H.H.J.H.H.H.H.L.L.L.U.L.H.W X   x <.=.1 Z 2.<.Z .             j 3.2.7 B 2.=.=.=.=.A 1 =.<.<.j             . Z 1.@.1 *.3.1.T L.L.J.J.J.J.J.J.J.J.J.J.J.J.L.J.H.",
"L.L.L.L.L.L.L.L.L.L.W.W.W.K.W X   c *.@.1 B *.*.C .             f *.#.3 z *.*.%.%.*.C < @.#.#.j             . C =.A < +.*.=.R L.L.J.J.J.J.J.J.J.J.J.J.J.J.L.L.H.",
"_ ` ' { { ' ' ' ' ' ' ' ' ] y % O 8 0 0 ; < 3 1 : . . . % % % % 8 9 9 8 < 1 < < 1 1 < ; 0 9 9 8 % % % o . .   : 4 1 ; 0 9 9 !  . . .} } } } } } }  . . . . .] ] ",
"w e v.@X}. XE.E.E.E.E.E.tX|.}.}.[.{.{.{. Xy.Z n # B A p.%X[.[.{.|.%X%X%Xp.C m # c C y.{.@X@X@X@X@X@X%Xh.Z C : j Z H [.|.[.[.%X|.|.|.tX`.`.`.`.`.'.<X{.{.@X.Xy t ",
"  X H r.j.*X6X3X3X3X3X4XrXD.t.t.d.d.d.d.$Xs.3.+.1 %.<.z.$Xs.d.s.s.s.s.$Xf.1.#.< +.<.g.&Xs.d.d.s.s.d.oXM.1.*.1 C <.w.&Xf.d.d.d.d.r.N.8X5X3X3X3X3X6XsXj.t.t.y.O X ",
"    m 1.7.&X7X5X3X3X3X3XeXB.1.<.<.<.<.4.$Xg.=.Z : +.#.z.oX2.2.<.<.<.<.oXf.*.+.: C #.g.#X4.<.<.<.<.<.C.b.=.@.< m *.>.$Xq.2.<.<.<.<.M.8X5X3X3X3X3X6XuXr.3.3.A .   ",
"    m 1.7.*X7X5X3X3X3X3XeXB.1.2.2.2.<.4.+XF 3 1 @ < > X.oX3.2.2.2.2.2.XXX.3 1 @ < > K #X6.2.2.2.2.<.C.o.3 1 @ : 1 F %X0.2.2.2.2.<.M.8X5X3X3X3X3X6XyXr.3.2.S .   ",
"    M 1.7.*X7X5X5X3X3X5XeXB.1.2.2.2.2.4.$Xi.+.+.+.A Z l.oX3.2.2.2.2.2.oXl.+.+.+.A Z i.#X6.2.2.2.2.<.C.z.+.+.+.A Z y.#X0.2.2.2.2.<.M.8X5X3X3X3X3X6XyXr.1.<.S .   ",
"    M 1.7.*X7X5X5X5X5X5XeXV.3.2.2.2.2.4.$Xs.<.2.2.<.<.f.oX3.2.2.2.2.<.oXf.<.2.2.<.<.s.$X6.3.2.2.2.<.C.M.<.2.<.<.<.q.$X0.3.2.2.2.<.M.8X5X5X5X5X5X6XuXr.3.3.S .   ",
"~ ~ I *.4.*X0X7X6X6X6X6XrXB.*.*.%.%.%.;.#Xz.q.q.q.q.9.c.oX;.*.%.%.%.@.XXz.9.q.q.q.9.z.$X;.*.%.%.%.@.C.Z.q.q.q.q.9.g.&X>.*.%.%.%.@.M.pX6X6X6X6X6X0XsXe.*.*.V     ",
"| H.u 1 h OXsXyXiX<XyXyXfXx.1 1 # # : 6 XX;X#X#XOX#X#X;Xn.3 < # : : 1 n.;X$X#XOX#X#X&X[.6 1 : # < > x.>X#X#XOX#X#X&XOX9 1 : # < > k.sXsXyXiX=X=XsX&Xv 1 1 $     ",
"H.H.K @.@.9.0.r.:.v 9.8.0.,.@.A 4 s +.@.e.w.w.u.0 u.w.w.,.@.+.f 7 +.+.,.w.w.u.v u.w.w.e.@.@.g 1 A +.,.w.w.a.v :.w.w.e.@.@.l < A A ;.0.0.0.v :.8.8.9.*.@.B o     ",
"K.H.T 2.2.2.<.3.+.1 =.3.<.2.2.2.5 l 2.2.2.<.2.@.: %.2.2.2.<.2.j f 2.2.2.<.2.*.1 @.3.2.2.2.2.z 7 2.2.2.2.2.*.1 Z 3.2.<.<.2.B 3 =.2.2.<.2.2.4 m 3.2.<.<.3.+.o     ",
"K.H.K +.+.+.+.+.N < A +.+.+.+.+.4 f +.+.+.+.+.B # C +.+.+.+.+.s 5 +.+.+.+.+.S # V &.+.+.+.+.g 1 +.+.+.+.+.A < z &.+.+.+.+.l < A +.+.+.+.+.1 j &.+.+.+.+.N o     ",
"H.H.u 1 < @ : < < # < < # # < 1 : : 1 : @ : 1 1 # < 1 # @ 1 1 < : 1 1 # : 1 1 # < 1 # @ : 1 < : 1 1 # # 1 < # < 1 : @ : 1 < # 1 1 # # 1 1 # : 1 : @ : < < $     ",
"H.H.K #.A : C @.@.@.@.@.f 3 +.@.@.@.@.A : n @.@.@.@.@.j < +.@.@.@.@.+.1 c %.@.&.@.@.n : A @.&.&.&.@.4 f @.@.@.@.@.B # C @.@.@.@.@.5 7 +.+.@.@.@.C : C *.*.V     ",
"H.F.Y 1.*.1 +.<.=.=.=.<.k 7 -.=.=.=.=.*.1 C 2.=.=.=.<.B 1 =.=.=.=.<.=.7 B 2.<.<.<.<.Z 1 *.=.=.=.=.<.s l 2.=.=.=.=.+.< @.=.*.=.=.=.f f -.=.=.=.=.%.< +.3.1.O..   ",
"H.F.K O.C # n A A A Z Z f 1 A Z Z Z Z C # l A Z Z Z A j < A Z Z Z Z Z 1 g A Z Z C Z c # C Z Z Z Z A 3 s A Z Z Z Z N # N A Z Z Z A 5 4 A Z Z Z Z B # n +.O.M .   ",
"H.H.u 3 1 < 1 1 # + < 1 1 < 1 1 @ # 1 1 < 1 1 : + : 1 1 < 1 1 # # 1 1 < < + . . . . . : 1 1 # # 1 3 < < 1 1 @ : 1 1 < 1 1 # @ 1 1 < < 1 1 @ # 1 1 < 1 1 : o     ",
"H.H.R *.*.*.%.*.m : A %.%.%.%.%.4 f %.%.%.%.%.C # Z %.%.%.%.%.s 5 *.*.Z c @         + z Z *.j 3 %.%.%.%.%.+.: n %.&.%.%.%.c 1 +.%.%.%.%.+.< j %.&.%.*.*.C o     ",
"H.H.Y <.<.<.<.2.Z < *.=.=.=.=.-.5 l 2.=.=.<.<.+.: @.<.=.=.=.<.g f 2.@.>                 : @.n 7 =.<.<.<.<.*.1 C 2.=.*.=.2.B 1 *.<.=.=.<.=.3 n 2.=.=.=.1.O.o     ",
"H.H.P C C C C C l # B C C C C C 1 5 C C C C C n # m Z C C C C 7 4 C 4                     3 s < C Z C C Z B # j C C C C Z g # B C C C C C < f C C C C Z z o     ",
"J.H.u 3 1 + < 3 1 1 1 1 # @ 1 3 1 1 1 1 + : 3 3 1 3 1 # @ 1 3 1 1 @                         @ 1 3 1 @ # 3 3 1 1 3 : + 1 3 1 1 1 1 @ @ 1 3 1 1 3 1 + < 3 3 ,     ",
"L.H.R *.+.: C *.*.*.*.*.j 4 *.*.*.*.*.@.< B *.*.*.*.*.z 1 %.*.*.*.5                         4 *.*.*.7 g *.*.*.*.*.C : A *.*.*.*.*.f 5 *.*.*.*.*.+.< Z *.*.C     ",
"U.L.Y 1.*.1 +.2.<.<.<.<.z 5 2.<.=.=.<.*.1 C 2.<.<.<.2.B 4 =.<.=.@.:                         # @.<.<.s j 2.<.<.<.<.+.< &.2.=.=.=.<.g s 2.<.<.<.<.#.< +.<.<.O..   ",
"/ / F C m # l B B B B B 5 < B B B B m m # g C B B m B f < B B m 3                             3 m B 1 4 C B B B B c @ z B B B m B 4 1 B B B B m n # l B m c     ",
"  X 2 4 7 4 4 4 < + 1 4 3 3 4 3 @ # 3 4 3 4 4 1 . 1 4 4 4 4 4 #                               + 4 7 4 3 4 3 + : 4 4 4 4 4 : + 1 4 3 4 4 3 @ : 4 4 3 4 4 1 o     ",
"    M =.*.*.*.*.C < @.*.*.*.*.*.5 g *.*.*.*.*.Z : +.*.*.*.*.*.s                               7 *.*.*.*.*.%.1 B *.*.*.*.*.n 1 %.*.*.*.*.*.3 z *.*.*.*.=.Z o     ",
"    V <.<.<.<.<.Z 1 *.<.=.=.=.<.s l 2.=.=.=.<.+.: @.2.=.=.<.2.g                               s <.<.=.<.<.*.1 Z 2.=.=.=.<.m 1 *.=.=.=.=.=.3 n 2.=.=.<.1.+.o     ",
"    h m n n n n g @ z n n n n n 1 4 n n n n n j @ l n n n n m 1                               < m n n n n z # f n n n n n s # z n n n n n # 5 n n n n n g o     ",
"  X 2 5 4 . 1 7 7 4 4 4 # @ 4 4 7 7 7 1 . : 4 7 7 7 4 : @ 7 5 s #                             @ 7 7 @ # 7 7 7 7 4 < . 1 7 7 7 7 4 # @ 4 7 7 7 7 1 . 1 s s 6 X X ",
"= - D <.@.< A *.*.*.*.*.j 4 *.*.*.*.*.%.< B =.*.*.*.*.n 3 =.<.<.s                             5 <.<.s j <.*.*.*.*.A : +.*.*.*.*.*.f s *.*.*.*.*.+.< A <.<.A - - ",
"( ( U 1.*.< +.2.=.=.=.<.k 7 -.=.=.=.<.*.1 C 2.<.=.=.<.B 3 =.<.<.d                             s 1.1.s j 2.<.=.=.<.+.< @.2.=.=.=.<.g f 2.<.<.=.<.@.< +.1.<.:.) / ",
"K.K.i n j @ g z z z z z 4 # k k k k z k @ 5 z z z k z 5 # c z n 1                             < n n < 1 z z z k z g @ g z k k k z 1 < z z z k z j @ f n n P L...",
"H.H.a s s s s s 1 + 4 5 s s s 5 @ : 5 s s s s 3 . 4 s s s s s #                               # s s s s s 7 + 1 s s s s s < + 7 s s s s 7 @ : s s s s s 4 r K.| ",
"K.F.T <.<.<.=.-.C < %.*.*.*.=.*.5 j -.*.=.=.-.A : @.*.*.=.=.2.f                               5 2.2.2.2.-.*.1 B =.*.*.*.-.n 1 *.*.*.*.*.*.3 z -.*.*.=.2.Z r K.F.",
"H.F.Y <.<.<.=.2.Z < *.=.=.*.=.=.5 j 2.=.=.=.<.+.: @.<.=.=.<.2.g                               s 2.2.<.<.<.*.1 C 2.=.*.*.-.N 1 =.-.=.=.=.*.3 n 2.=.*.=.<.+.r K.F.",
"H.F.i j j j j j s @ g j j j j j : 1 l j j j j f @ f j j j j j 1                               : j j j j j g @ 7 j j j j j 7 @ g j j j j j # 4 k j j j j s r K.H.",
"F.F.a g 5 . 7 f f f f s < # s f f f f 5 + 3 f f g f f 1 @ s f g :                             # f f # : f f g f f 4 . 7 f f f f s # # d f f f f 5 + 7 f g i H.H.",
"H.F.I <.@.< A <.=.=.=.<.k 5 =.=.=.=.=.*.1 C 2.<.<.<.2.m 3 *.=.<.s                             s <.<.s j 2.=.=.-.2.+.< @.=.*.=.=.=.g s <.=.=.=.=.@.1 +.<.<.U P.H.",
"H.G.I <.#.1 A <.=.=.=.<.k 5 -.=.=.*.=.*.1 C <.=.=.=.<.m 4 =.=.<.d                             s <.<.s j 2.<.=.=.<.+.1 @.=.=.*.*.=.g s 2.<.=.=.<.@.1 +.<.<.U P.F.",
"H.F.i j d @ 5 g f f f g < # g g f f g s @ 4 g f f f g 3 # f g f :                             # g j : < j g g f g s @ s g f f f g < # g g f f g s @ 7 g g i H.F.",
"K.F.i j j l j j 7 @ f j j j j g # 1 g g j j j 5 + s j j j j j <                               : j j j j j f @ 4 j j j j j 3 @ f j j j j f @ 1 j j j j j s t K.H.",
"K.K.T <.=.=.=.2.C 1 *.=.*.*.=.=.5 j =.=.=.=.<.+.: @.-.*.=.=.2.g                               s <.<.<.<.-.*.1 C 2.*.=.=.=.m 1 *.=.*.=.=.*.3 n -.*.=.=.2.A y K.H.",
"K.K.Y <.=.*.*.=.C < %.*.*.*.*.=.s j =.*.*.*.=.+.: +.=.*.*.=.2.g                               s <.=.=.=.=.*.< B -.*.*.*.=.m 1 *.*.*.*.*.*.4 z -.*.*.=.<.A y L.K.",
"U.K.a s 5 5 5 s 4 . 7 s 5 5 5 5 # < s 5 5 5 s 4 . 7 s 5 5 5 s <                               # s s s s s 5 @ 1 s 5 5 5 s 1 @ 5 s 5 5 s s @ < s 5 5 5 s 3 t U.K.",
"U.K.i z j @ d k k k k k 1 : j j k k k j @ s k k z k k 7 # z n n <                             < n z : 1 z k z k k f @ g k k k k l < < k k z k k f @ f z n P L.K.",
"G.| I 1.#.1 +.2.-.2.2.2.k s 2.=.=.<.2.*.1 Z 2.2.2.<.2.B 4 <.<.<.d                             s 1.3.s k 3.2.2.2.2.@.1 %.2.=.=.<.2.g f 2.2.2.-.<.%.1 @.3.1.U { [ ",
"W Q D <.@.< A =.*.*.*.=.k 5 =.*.*.*.*.@.< C <.*.*.*.=.n 3 =.=.=.g                             s <.<.s j <.*.*.*.=.+.< +.*.*.*.*.=.f s =.*.*.*.=.@.< A <.=.H y t ",
"O O 2 5 4 . 3 5 5 5 5 5 : @ 7 5 5 5 5 4 . 1 5 5 5 5 5 < + 7 5 5 :                             # 5 5 # : s 5 5 5 5 1 . 3 5 5 7 7 5 # # 5 5 5 7 5 4 . 1 5 5 6 O X "
};
