/* XPM */
static char *de918355036e4e0fa8e6bf445f911e22U14k03oVbWP0BxdU[] = {
/* columns rows colors chars-per-pixel */
"80 80 2 1 ",
"  c #A0C5FF",
". c #E4EFFF",
/* pixels */
"                                                                                ",
"                                                                                ",
"                                                                                ",
"                                                                                ",
"                                                                                ",
"                                                                                ",
"                                                                                ",
"                                                                                ",
"                    ....                    ....                ....            ",
"                    ....                    ....                ....            ",
"                    ....                    ....                ....            ",
"                    ....                    ....                ....            ",
"                ....                    ....                ....                ",
"                ....                    ....                ....                ",
"                ....                    ....                ....                ",
"                ....                    ....                ....                ",
"            ....                                        ....                    ",
"            ....                                        ....                    ",
"            ....                                        ....                    ",
"            ....                                        ....                    ",
"        ....                                        ....                        ",
"        ....                                        ....                        ",
"        ....                                        ....                        ",
"        ....                                        ....                        ",
"                            ....                ....                            ",
"                            ....                ....                            ",
"                            ....                ....                            ",
"                            ....                ....                            ",
"                        ....                                                    ",
"                        ....                                                    ",
"                        ....                                                    ",
"                        ....                                                    ",
"                                                                                ",
"                                                                                ",
"                                                                                ",
"                                                                                ",
"                ....                                            ....            ",
"                ....                                            ....            ",
"                ....                                            ....            ",
"                ....                                            ....            ",
"            ....                                            ....                ",
"            ....                                            ....                ",
"            ....                                            ....                ",
"            ....                                            ....                ",
"        ....                    ....                    ....                    ",
"        ....                    ....                    ....                    ",
"        ....                    ....                    ....                    ",
"        ....                    ....                    ....                    ",
"                                                    ....                        ",
"                                                    ....                        ",
"                                                    ....                        ",
"                                                    ....                        ",
"                                                                                ",
"                                                                                ",
"                                                                                ",
"                                                                                ",
"                    ....                    ....                                ",
"                    ....                    ....                                ",
"                    ....                    ....                                ",
"                    ....                    ....                                ",
"                ....                    ....                    ....            ",
"                ....                    ....                    ....            ",
"                ....                    ....                    ....            ",
"                ....                    ....                    ....            ",
"            ....                    ....                    ....                ",
"            ....                    ....                    ....                ",
"            ....                    ....                    ....                ",
"            ....                    ....                    ....                ",
"        ....                                            ....                    ",
"        ....                                            ....                    ",
"        ....                                            ....                    ",
"        ....                                            ....                    ",
"                                                                                ",
"                                                                                ",
"                                                                                ",
"                                                                                ",
"                                                                                ",
"                                                                                ",
"                                                                                ",
"                                                                                "
};
