/* XPM */
static char *_4d087c102c34208d9cb94df756cd6f0QH0UviDN91is7CP9[] = {
/* columns rows colors chars-per-pixel */
"80 80 3 1 ",
"  c gray42",
". c gray47",
"X c #FEEF48",
/* pixels */
"................................................................................",
"................................................................................",
"................................................................................",
"................................................................................",
"....XXXXXXXXXXXX....................................................XXXXXXXX....",
"....XXXXXXXXXXXX....................................................XXXXXXXX....",
"....XXXXXXXXXXXX....................................................XXXXXXXX....",
"....XXXXXXXXXXXX....................................................XXXXXXXX....",
"....XXXXXXXXXXXX....................XXXXXXXX    ................    XXXXXXXX....",
"....XXXXXXXXXXXX....................XXXXXXXX    ................    XXXXXXXX....",
"....XXXXXXXXXXXX....................XXXXXXXX    ................    XXXXXXXX....",
"....XXXXXXXXXXXX....................XXXXXXXX    ................    XXXXXXXX....",
"....XXXXXXXX....................XXXXXXXXXXXX............................    ....",
"....XXXXXXXX....................XXXXXXXXXXXX............................    ....",
"....XXXXXXXX....................XXXXXXXXXXXX............................    ....",
"....XXXXXXXX....................XXXXXXXXXXXX............................    ....",
"....................................            ................................",
"....................................            ................................",
"....................................            ................................",
"....................................            ................................",
"............    XXXXXXXX............................XXXXXXXX    ................",
"............    XXXXXXXX............................XXXXXXXX    ................",
"............    XXXXXXXX............................XXXXXXXX    ................",
"............    XXXXXXXX............................XXXXXXXX    ................",
"............    XXXXXXXXXXXX........................XXXXXXXXXXXX................",
"............    XXXXXXXXXXXX........................XXXXXXXXXXXX................",
"............    XXXXXXXXXXXX........................XXXXXXXXXXXX................",
"............    XXXXXXXXXXXX........................XXXXXXXXXXXX................",
"................XXXXXXXXXXXX........................XXXXXXXXXXXX................",
"................XXXXXXXXXXXX........................XXXXXXXXXXXX................",
"................XXXXXXXXXXXX........................XXXXXXXXXXXX................",
"................XXXXXXXXXXXX........................XXXXXXXXXXXX................",
"........................................        ....XXXXXXXX        ............",
"........................................        ....XXXXXXXX        ............",
"........................................        ....XXXXXXXX        ............",
"........................................        ....XXXXXXXX        ............",
"................................    XXXXXXXX    ................................",
"................................    XXXXXXXX    ................................",
"................................    XXXXXXXX    ................................",
"................................    XXXXXXXX    ................................",
"............        ............    ....XXXX....................................",
"............        ............    ....XXXX....................................",
"............        ............    ....XXXX....................................",
"............        ............    ....XXXX....................................",
"........        XXXXXXXXXXXX....................................................",
"........        XXXXXXXXXXXX....................................................",
"........        XXXXXXXXXXXX....................................................",
"........        XXXXXXXXXXXX....................................................",
"................XXXXXXXXXXXX....................................................",
"................XXXXXXXXXXXX....................................................",
"................XXXXXXXXXXXX....................................................",
"................XXXXXXXXXXXX....................................................",
"........    ....XXXXXXXX........................XXXXXXXX....        ............",
"........    ....XXXXXXXX........................XXXXXXXX....        ............",
"........    ....XXXXXXXX........................XXXXXXXX....        ............",
"........    ....XXXXXXXX........................XXXXXXXX....        ............",
"....        ........................        ....XXXXXXXXXXXX        ............",
"....        ........................        ....XXXXXXXXXXXX        ............",
"....        ........................        ....XXXXXXXXXXXX        ............",
"....        ........................        ....XXXXXXXXXXXX        ............",
"....    ............................        ....................................",
"....    ............................        ....................................",
"....    ............................        ....................................",
"....    ............................        ....................................",
"........XXXXXXXX....................XXXXXXXX....................XXXXXXXX........",
"........XXXXXXXX....................XXXXXXXX....................XXXXXXXX........",
"........XXXXXXXX....................XXXXXXXX....................XXXXXXXX........",
"........XXXXXXXX....................XXXXXXXX....................XXXXXXXX........",
"....    XXXXXXXX....................XXXXXXXX................XXXXXXXXXXXX    ....",
"....    XXXXXXXX....................XXXXXXXX................XXXXXXXXXXXX    ....",
"....    XXXXXXXX....................XXXXXXXX................XXXXXXXXXXXX    ....",
"....    XXXXXXXX....................XXXXXXXX................XXXXXXXXXXXX    ....",
"....        ................................................                ....",
"....        ................................................                ....",
"....        ................................................                ....",
"....        ................................................                ....",
"................................................................................",
"................................................................................",
"................................................................................",
"................................................................................"
};
