/* XPM */
static char *a3df7f6c0a1b4cb3e2f99a7c6b338cc6r9mYzxVTLZROuhUp[] = {
/* columns rows colors chars-per-pixel */
"80 80 226 2 ",
"   c #000101",
".  c #010609",
"X  c #030A0D",
"o  c #0B0D0C",
"O  c #0D0807",
"+  c #13110E",
"@  c #020D13",
"#  c #021215",
"$  c #021916",
"%  c #01131A",
"&  c #031A1A",
"*  c #091718",
"=  c #15140F",
"-  c #241E15",
";  c #25160F",
":  c #011D24",
">  c #012027",
",  c #02242B",
"<  c #022C2E",
"1  c #09272A",
"2  c #022D31",
"3  c #032F3C",
"4  c #01333D",
"5  c #093336",
"6  c #16333A",
"7  c #342F27",
"8  c #35342B",
"9  c #2C403D",
"0  c #71603E",
"q  c #4D503E",
"w  c #013643",
"e  c #023945",
"r  c #013C49",
"t  c #093640",
"y  c #1E3E43",
"u  c #024247",
"i  c #01444A",
"p  c #0A424B",
"a  c #014A55",
"s  c #014E5C",
"d  c #064A55",
"f  c #01525D",
"g  c #03595D",
"h  c #2D4D4F",
"j  c #35615D",
"k  c #014F62",
"l  c #015463",
"z  c #015A63",
"x  c #015C6B",
"c  c #085966",
"v  c #005E71",
"b  c #385C60",
"n  c #01616D",
"m  c #006374",
"M  c #006679",
"N  c #006D7D",
"B  c #0B6773",
"V  c #156A76",
"C  c #00717D",
"Z  c #0E7B7E",
"A  c #147B7C",
"S  c #1D7675",
"D  c #2A7C6E",
"F  c #3D7D66",
"G  c #327E6B",
"H  c #3E7D68",
"J  c #2C7071",
"K  c #487F5D",
"L  c #6F6341",
"P  c #447A65",
"I  c #A45603",
"U  c #A85A02",
"Y  c #B6640C",
"T  c #BA6B0C",
"R  c #B56607",
"E  c #B26D11",
"W  c #8E6D3C",
"Q  c #A37C29",
"!  c #C5790D",
"~  c #CA7B13",
"^  c #D37F1B",
"/  c #A27E47",
"(  c #947945",
")  c #39836C",
"_  c #2A8178",
"`  c #598359",
"'  c #7A874D",
"]  c #698758",
"[  c #738D54",
"{  c #738955",
"}  c #43826C",
"|  c #488467",
" . c #578965",
".. c #958C3F",
"X. c #A58533",
"o. c #AE913A",
"O. c #B3953C",
"+. c #BD9A39",
"@. c #BD9937",
"#. c #B8882C",
"$. c #CF8315",
"%. c #CA841A",
"&. c #D3831A",
"*. c #D58819",
"=. c #D88A1A",
"-. c #DF971F",
";. c #E39B1E",
":. c #E99B1D",
">. c #E1961E",
",. c #D48622",
"<. c #DD9C26",
"1. c #D49C2D",
"2. c #DC9C2A",
"3. c #D99223",
"4. c #C49A34",
"5. c #CA9B35",
"6. c #C59B3A",
"7. c #D79E34",
"8. c #CB9129",
"9. c #E39622",
"0. c #E49C23",
"q. c #E99A21",
"w. c #E29D29",
"e. c #E89625",
"r. c #E59E32",
"t. c #DBA137",
"y. c #E2A12C",
"u. c #E4A027",
"i. c #E4A239",
"p. c #868D4C",
"a. c #8D914E",
"s. c #9D9344",
"d. c #93924B",
"f. c #858D50",
"g. c #818C58",
"h. c #889252",
"j. c #9A8E46",
"k. c #A49244",
"l. c #B79B43",
"z. c #BB9F52",
"x. c #A8844A",
"c. c #BAA05A",
"v. c #A79B69",
"b. c #95A47E",
"n. c #B6A262",
"m. c #B3AA71",
"M. c #969C76",
"N. c #CE9F44",
"B. c #DDA648",
"V. c #D1A553",
"C. c #E2AD4D",
"Z. c #E3AB51",
"A. c #E0B25F",
"S. c #C9AD79",
"D. c #CEB06D",
"F. c #E2B665",
"G. c #006E82",
"H. c #096F84",
"J. c #007285",
"K. c #007585",
"L. c #007587",
"P. c #007687",
"I. c #007685",
"U. c #007485",
"Y. c #007986",
"T. c #007986",
"R. c #0D7982",
"E. c #007589",
"W. c #007689",
"Q. c #00758A",
"!. c #00768B",
"~. c #00758C",
"^. c #00768D",
"/. c #00758F",
"(. c #00768F",
"). c #00758A",
"_. c #007889",
"`. c #00798A",
"'. c #00798D",
"]. c #007A8B",
"[. c #0B7B8D",
"{. c #137E85",
"}. c #177D8A",
"|. c #007590",
" X c #007691",
".X c #007792",
"XX c #007691",
"oX c #007991",
"OX c #007A95",
"+X c #007B92",
"@X c #047D96",
"#X c #177F91",
"$X c #267D83",
"%X c #16828E",
"&X c #018193",
"*X c #028399",
"=X c #03889C",
"-X c #1E8392",
";X c #178797",
":X c #00818C",
">X c #27848E",
",X c #3A878B",
"<X c #2B8D99",
"1X c #268993",
"2X c #378C95",
"3X c #2D9099",
"4X c #36929E",
"5X c #3C93A5",
"6X c #51928B",
"7X c #469496",
"8X c #519596",
"9X c #4F8D8B",
"0X c #779D86",
"qX c #679D95",
"wX c #6B988C",
"eX c #78A095",
"rX c #4499A3",
"tX c #4799A7",
"yX c #599CA8",
"uX c #5AA0AF",
"iX c #6BA7AC",
"pX c #84A388",
"aX c #85A695",
"sX c #B0AF8B",
"dX c #D4B987",
"fX c #CEBA8B",
/* pixels */
"M G.~.~.~.~.~.~.~.~. X X X X X X X~.~.~.~.~. X X X X X X X X X+XOX].g %       @ N OXOXOXOXOX+X X X X X X X X X X X X X X X X X X X X X X X X+XOXOX'.C , .     . ",
"N G.Q.~.~.~.~.~.~.~. X X X X~.~.~.~.~.~.~.~. X X~.~.~.~.~.+X+X+XOX'.z &       X M +XOXOX+X+X+X X X X X X X X X X~.~. X X X X X X X X X X X+X+X+X+X'.C , .     . ",
"N J.E.E.~.~.E.~.~.~.~. X~.~.~.~.~.~.~.~.~.~.~.~.~.~.~.~.~.~.'.+X+X'.x %       X v E.~.+X+X+X+X~.~.~.~.~.~.~.~.~.~.~.~.~.~.~.~.~.~.~.~.~.~. X'.+X+X'.N , .       ",
"N J.L.E.E.E.E.E.E.~.~.~.~.~.~.~.~.~.~.~.~.~.~.~.E.E.~.~.~.E.'.'.'.L.l #       @ x J.E.'.'.'.~.~.~.~.~.~.~.~.~.~.~.~.~.~.~.~.~.~.~.~.~.~.~.~.'.+X'.].N , .       ",
"N G.J.L.L.E.L.L.E.E.E.E.E.E.E.E.E.E.E.E.E.E.E.E.E.E.E.E.E.E.E.'.'.J.l #       @ z G.L.E.'.E.E.E.E.E.E.E.E.E.E.E.E.E.E.E.E.E.E.E.E.E.E.E.E.E.~.'.'.].N , .       ",
"N G.J.L.L.L.L.J.J.L.L.L.E.E.E.E.E.E.E.E.E.E.E.L.L.E.E.L.L.L.E.].'.J.l #       @ z N J.E.E.E.E.E.E.E.E.E.E.E.E.E.E.E.E.E.E.E.E.E.E.E.E.E.E.E.E.'.'.].N , .       ",
"N G.J.L.L.J.L.L.J.L.L.L.E.E.E.E.E.].E.E.E.E.E.L.L.E.E.L.L.L.E.].'.J.l #       @ z N J.E.E.E.E.E.E.E.E.E.].].E.E.].].E.E.E.E.E.E.E.E.E.E.E.E.].'.'.].N , .       ",
"C J.J.J.L.J.L.L.L.L.L.L.L.L.L.L.L.E.E.E.L.L.L.L.L.E.L.L.L.L.].].].J.l %       X z C L.E.E.E.E.].].].].].].].].].E.].].E.E.E.].E.L.E.E.E.L.].].].'.].N , .       ",
"K.C J.J.J.J.K.K.K.K.K.K.K.K.K.K.K.L.L.L.L.K.K.L.L.L.L.K.K.L.L.Y.Y.K.l %       X x J.L.E.].Y.Y.Y.Y.Y.Y.].Y.Y.Y.Y.Y.Y.Y.L.L.L.Y.L.L.L.L.L.Y.Y.Y.].].Y.N , .       ",
"J.G.N N N N N N N N N N N N N N N N N N N N N N C N N N N N N N N N k #       X c G.G.G.J.J.J.J.J.J.J.K.K.J.J.J.J.C C J.J.J.J.J.J.N N C N C C C C N x :         ",
"l l s s s f s s s s s s s s s s s s s s s s s s s s s f s s s a a a w X       . p s s s s f f f f f f f f f f f f f f f f f f f f s s s s s a a a i r %         ",
"% % % % % % % % # # # @ @ @ @ @ @ @ @ @ # # @ # # # # # # @ @ @ @ @ X           X # # @ # # # # # # # # # # # # # # # # # # # # # @ @ @ @ @ @ @ @ @ X           ",
"                                                                                                                                                                ",
"                                                                                                                                                                ",
"                                                                                                                                                                ",
"                                                                                                                                                                ",
", < < < < < < < < < < < 2 1 *         X : 2 2 < < < < < < < < < < < 2 2 2 2 2 2 2 2 2 2 2 2 2 2 < 2 2 2 2 5 > .       . & < < < < < < < < < < < < < < < 2 < < 1 ",
"l l l l z z g z z z z z x c 5 .       & r z z z z z z z z z z z z z z z z z z z z z z z z z z z z z z x x B p #       . 2 l z z g z z g g z z z z z z z z z c s ",
"L.E.L.K.K.L.K.L.L.L.].'.+XI.u .       : f L.L.L.L.Y.Y.Y.L.L.L.L.L.L.L.L.L.L.L.L.L.L.L.L.L.E.E.E.E.].].'.+X&Xz &       X r L.L.K.K.L.K.K.K.L.L.K.L.Y.L.L.L.].L.N ",
"E.E.E.L.L.L.L.L.L.E.].'.'.J.r .       > l E.E.E.E.].].E.E.E.E.E.E.E.E.E.E.E.E.E.L.E.E.L.E.E.E.E.E.'.'.'.+X&Xl &       X i ].J.L.L.L.L.L.K.K.L.L.L.E.].].].].E.H.",
"E.E.E.L.L.L.L.L.L.E.].'.'.J.r .       > f L.E.E.E.E.E.E.E.E.E.E.E.E.E.E.E.E.E.Q.Q.E.E.E.E.E.Q.E.E.E.~.+X+X&Xl %       X i E.J.L.L.L.L.L.L.L.L.L.L.E.].].].].L.H.",
"J.J.L.L.L.L.L.L.J.E.E.'.'.G.e .       > f L.E.E.E.~.E.E.E.E.E.E.E.E.E.E.E.E.E.Q.Q.E.E.E.E.E.Q.Q.Q.E.~.+X+XOXl %       @ r L.J.L.L.L.L.L.L.L.L.L.L.E.E.].].Y.L.J.",
"J.J.L.L.L.L.J.J.J.E.E.'.'.G.r .       > l J.J.E.E.E.~.E.E.E.E.E.E.E.E.E.E.E.E.E.E.E.E.E.E.E.Q.Q.Q.E.~.'.+XOXl %       @ r L.J.L.L.L.L.K.L.J.L.L.L.L.L.L.Y.Y.].].",
"Q.J.L.J.J.L.J.J.J.E.E.~.'.G.r .       > l L.E.E.E.E.~.E.E.E.E.E.E.E.E.E.!.!.!.!.`.E.E.E.E.~.E.E.E.~.~.+X+XOXl %       @ r L.J.L.L.L.L.L.L.K.L.L.L.L.L.L.E.Y.Y.].",
"E.Q.J.L.L.L.J.J.J.Q.E.~.'.G.r .       > l L.E.E.E.E.E.E.E.E.E.E.}.2X6XqXeXaXaXaXaXqX8X7XrXtXtXtX<X[.~.'.+XOXk %       @ r L.J.L.L.L.L.L.L.L.L.L.L.L.L.E.].].Y.Y.",
"Q.J.J.J.E.L.J.J.J.Q.E.'.].G.r .       > l L.Q.E.E.~.~.~.E.E.E.-XaXm.D.A.F.F.F.F.F.F.m.pXqXtXtXuXiX4X~.'.+X+Xk %       @ i L.J.J.L.L.L.L.L.L.L.L.L.L.E.L.].].Y.T.",
"J.J.J.J.J.J.E.E.E.E.E.'.'.G.r .       > l E.E.E.~.~.~.E.~.[.}.wXS.B.y.u.u.y.t.y.y.t.l.g.| $X}.>XyXuX;X@X+XOXk %       @ i L.J.J.L.E.L.J.J.L.L.L.E.E.E.L.L.Y.Y.Y.",
"J.J.E.L.L.L.L.E.E.E.E.'.'.J.r .       > l E.E.].~.~.~.E.[.2XpXD.B.w.0.:.:.0.0.q.q.0.1.o.f. ._ {.<XrX5X;X+XOXl %       @ i L.E.E.L.L.E.L.L.L.L.L.L.J.E.L.L.L.Y.Y.",
"J.L.E.E.E.L.E.E.E.E.'.'.'.J.r .       > l ].'.'.'.'.'.'.1X0Xn.t.u.0.0.9.9.3.>.9.e.0.<.2.@.h.} A @X%X1X%X+X&Xl %       @ i Y.E.].].].].E.L.L.L.E.L.L.E.E.].Y.Y.K.",
"K.L.E.E.Y.L.L.E.E.].'.+X'.L.r .       > z ].'.'.'.'.'.'.1XpXz.<.:.0.3.&.~ ! ! ~ ,.9.0.:.1.s.| A '.+X%X;X&X*Xl %       X i ].].].].].].L.L.Y.L.E.L.L.Y.].Y.Y.Y.K.",
"Y.Y.L.Y.L.L.L.L.].].'.+X'.L.r .       , z ].'.'.'.'.'.].7Xb.z.<.:.-.$.T U U U R E 3.<.0.1.s.` D R.].%X;X;X*Xl %       X i :X].].].Y.Y.Y.Y.Y.Y.Y.Y.Y.Y.Y.T.T.Y.K.",
"].].].].].].].].].'.&X&X&XE.r .       , n &X&X&X'.&X;X7XpXm.N.<.=.$.! T Y Y R E Q X.O.4.5.O.p.` ) {.%X;X;X=Xl %       . i &X'.'.].Y.Y.Y.Y.Y.Y.Y.Y.Y.Y.Y.T.].].J.",
"l z z l l l z z z z z z l s 2 .       & i n x x x B 9XM.c.t.w.=.! R T ~ ,.,.,.#.p.] ] s.5.1.@.s.] _ {.}.{.V r @       . 4 B m m m n m m n n n n n n x n n n x c ",
"> , , , , , , , , , > > : : @         X : 2 2 2 2 h v.V.7.0.q.*.T I Y ^ 9.0.2.@.' F P p.5.0.0.6.h.) R.].R.S 6 .         & t 4 4 4 w w w 4 4 4 4 4 4 4 4 4 4 3 2 ",
"  . . . . . . . . . . . .                 . . . . 7 S.Z.0.:.:.*.T I Y &.9.:.0.@.[ G F f.5.0.q.5.a.} R.].].S 6 O           . . . . . . . . . . . . . . . . . . . ",
"                                                  7 dXZ.0.:.q.*.T I R $.9.:.0.@.[ G F f.5.q.q.5.h.} Z ].].$Xh o                                                 ",
"                                                  7 dXZ.w.0.0.*.T I R $.9.q.0.@.[ G H f.5.q.0.5.a.) Z ].[.>Xb o                                                 ",
"                                                  7 dXC.0.q.0.*.T I R &.9.0.w.@.[ G F f.5.0.0.5.a.} Z ].`.>Xb o                                                 ",
"                                                  7 S.C.0.q.q.*.T I Y &.;.0.w.@.[ G F f.5.0.0.5.a.} Z ].`.>Xb o                                                 ",
"i i i i i i u u i i i u i i i i i i i i i i u u u j dXC.0.q.q.*.T I Y &.;.0.w.@.[ G F f.5.0.0.5.a.} Z ].`.1X,Xd i i i i i i i i i i i i i i i i i u 5 X         ",
"N J.J.C C C C C C C C C C C C C C C C C C C C C C ,XdXC.0.0.q.*.T I Y &.;.0.w.@.[ G F f.5.0.0.5.a.} Z ].`.<XrXI.K.K.K.K.K.J.J.J.C C C C C N J.J.J.C f &         ",
"L.E.E.L.L.L.L.L.L.L.Y.Y.L.L.L.L.Y.Y.Y.Y.Y.L.L.Y.Y.7XdXC.0.0.q.*.T I Y &.;.0.w.@.[ G F f.5.0.0.5.a.} Z ].`.3XrXI.L.L.L.L.L.L.L.L.L.L.L.L.L.L.].'.'.].x &         ",
"E.E.E.].Y.E.L.L.L.L.E.E.L.Y.L.L.E.L.E.E.E.E.E.E.E.8XdXC.0.q.q.*.T I Y &.;.0.w.@.[ G F f.5.0.0.5.a.} Z ].`.3XrX`.L.L.L.L.L.L.L.E.E.E.E.E.E.E.'.+X&X].x :         ",
"E.E.E.E.].E.L.E.E.E.E.E.E.L.L.L.E.E.E.E.E.E.E.E.E.8XdXC.0.q.q.*.T I Y &.;.0.w.@.[ G F f.5.0.0.5.a.} Z ].`.<XrX[.L.L.L.L.L.L.L.E.E.E.E.E.E.E.'.+X+X].x :         ",
"L.J.L.E.L.E.L.E.E.L.E.E.E.E.L.E.E.E.E.E.E.L.L.E.E.7XdXC.0.q.q.*.T I Y &.;.0.w.@.[ G F f.5.0.0.5.a.} Z ].`.<XtX[.L.L.E.E.L.L.J.E.E.E.E.~.E.~.~.+X+X].v :         ",
"J.J.L.E.L.].L.L.L.L.L.L.E.E.E.E.E.E.L.E.E.E.L.E.E.2XfXZ.0.q.q.*.T I Y &.<.0.0.4.[ G F p.5.:.0.5.h.} R.].`.<XrX[.E.L.E.E.E.L.E.E.E.E.E.E.~.~.~.+X+X'.v :         ",
"J.J.E.E.L.E.L.L.L.L.L.E.L.L.L.L.E.E.E.E.E.E.Q.E.E.2XsXZ.w.0.q.*.T I R $.<.w.0.4.[ G F p.5.:.:.5.a.} A `.`.1X4X[.L.Q.Q.E.E.E.Q.E.E.E.E.E.~.~.~.+X+X'.m :         ",
"J.J.Q.E.L.L.L.L.L.E.E.E.E.L.L.E.E.E.Q.E.E.E.E.E.E.2XsXV.w.:.q.*.E I R $.0.0.2.l.[ G F f.6.0.0.5.a.| A `.`.1X-XE.Q.Q.Q.E.E.E.Q.E.E.E.Q.~.~.~.~.+X+X'.m :         ",
"J.J.Q.E.L.J.L.L.E.E.E.E.E.E.E.E.E.E.Q.E.E.E.E.E.E.2XpXn.7.0.q.=.T U R %.1.2.7.l.[ G | f.6.w.w.6.h.) Z ].[.-X[.Q.Q.Q.Q.E.E.E.Q.E.~.~.~.~.~.~. X+X+X'.m :         ",
"L.J.Q.E.L.L.E.E.E.E.E.E.E.E.E.E.E.E.E.E.E.E.Q.Q.E.#X8X0Xn.B.w.=.! E E X.s.s.s.d.{ ` { k.5.1.O.d. ._ {.%X-X[.E.E.E.E.E.~.~.~.E.Q.~.~.~.~.~.~.~.+X+X~.m :         ",
"L.E.E.].].E.E.E.E.E.E.E.E.E.E.E.E.E.E.E.E.E.E.E.E.'.#X>X6Xv.t.<.3.%.X.' ` | K ` ' j.O.5.1.O.' | _ {.%X-X[.E.E.E.E.~.E.~.~.~.~.~.~.'.~.~.'.'.+X+X+X'.m :         ",
"L.E.].'.].].].E.E.E.E.E.E.E.E.].E.~.~.'.].E.E.E.E.~.E.E.%Xb.B.0.0.2.o.{ P F K ` a.6.2.0.1.k.` S T.+X#X[.].E.E.E.E.~.~.~.~.~.~.~.~.'.~.~.'.+X'.+X+X'.N >         ",
"Y.].].].].].].].].].].E.].].].].].].'.].].E.E.E.].].].E.%Xb.B.0.:.;.5.k.d.a.a.s.O.1.0.0.1.s. .A '.+X[.'.].].E.E.].~.E.~.'.~.E.~.'.'.~.'.'.'.'.+X+X'.N >         ",
"].].].].].Y.Y.Y.Y.Y.].Y.Y.].].].].].].].].].].].].].].].#X0XV.i.y.0.<.2.2.<.1.1.2.0.<.1.+.h.} {.[.[.].].].].E.E.].E.E.].].E.].].].].].].].].].'.'.].M >         ",
"@X'.'.].].].].].].].].].].'.'.'.'.'.'.'.'.'.'.'.'.'.'.'.'.1X0XD.B.u.0.q.q.q.0.0.0.<.4...[ | D {.[.'.'.'.'.'.'.'.'.'.'.'.'.'.'.'.'.'.'.].'.'.].'.'.E.N >         ",
"d a a a a a a a a a a a a s s s s s s s s s f f f f f f s f c P v.N.7.r.r.r.r.r.r.7.k.] F S B c l f f f f f f f f f f f f f f f f f f f s s s s s a i &         ",
"  . . X X X X X X X X X X @ @ @ @ @ # # # # # # # # # # # # % & 8 L ( x.x./ W W W 0 q 9 y 6 : % % % & % % % % & & & % % % & % % & & & & % % % # # @ X           ",
"                                . . . . . .                 .   . o = - - = = + + o o . . .                                                                     ",
"                                                                                                                                                                ",
"                                                                            + - ; ; O                                                                           ",
"  .             . . .   .                 . . . .                           . . . .     . .               .                                           .     . . ",
"& & & & $ $ % % $ # # # * * .         . # & & & & & & & & & & & & & & & & & & & & & & & & & & & & & & & & * #           . # % # # # # # # % % $ $ $ & & & & & # ",
"f l f f f f f f f f f f l d 1         % 4 f f f f f f f f f f f f f f f f f f f f f f f f f f f f f l l l c t .       . , f f f f f f f f f f f f f f f z z f d ",
"E.~.'.].].].].].E.'.+X+X&XK.t         : f E.E.E.].'.].].].].].E.E.E.].].].E.E.E.E.E.E.].'.].E.E.~.'.'.+XOX=Xl #       . e '.~.].].].].].].].].].].].].].+X&X'.C ",
"L.Q.Q.E.L.E.J.Q.Q.Q.E.+X+XG.e         : s J.Q.E.E.E.E.E.E.E.E.Q.J.J.J.E.L.J.J.E.E.E.J.Q.E.E.Q.Q.Q.E.~.'.+X*Xl #       . e ].E.E.E.E.E.L.L.L.L.L.L.L.E.E.'.+X].N ",
"Q.Q.Q.E.Q.E.J.Q.Q.Q.~.+X'.G.e .       : s J.Q.Q.E.~.~.Q.Q.Q.Q.Q.Q.Q.Q.Q.Q.Q.Q.Q.Q.Q.Q.Q.Q.Q.Q.Q.Q.Q.~. X+XOXl %       . e '.E.E.E.E.E.E.E.J.J.E.E.E.E.E.'.+X].G.",
"J.Q.Q.E.E.Q.J.Q.J.Q.~.~.'.G.w .       : s J.Q.Q.E.E.~.Q.Q.Q.Q.Q.Q.Q.Q.Q.Q.Q.Q.Q.Q.E.Q.Q.Q.Q.Q.Q.Q.~.~. X+XOXk %       . e E.Q.E.E.E.E.E.L.J.J.J.J.J.E.E.'.+XE.G.",
"J.G.Q.E.E.J.J.J.G.J.Q.~.~.G.w .       : s J.Q.E.Q.Q.E.Q.Q.E.Q.Q.Q.Q.Q.Q.Q.Q.Q.Q.Q.E.Q.Q.Q.Q.Q.Q.Q.~. X X+X@Xk %       . e E.J.E.E.E.E.L.L.J.J.J.J.J.Q.E.'.+XE.J.",
"G.G.J.Q.E.Q.Q.G.J.Q.~. X'.G.e .       : s Q.Q.~.~.Q.~.Q.Q.Q.Q.Q.Q.Q.Q.Q.E.Q.E.Q.Q.E.~.Q.Q.Q.Q.Q.~.~.~. X+X@Xk %       X e E.Q.E.E.Q.Q.E.E.J.J.J.J.J.Q.Q.~.'.E.J.",
"G.G.Q.Q.Q.Q.J.J.Q.Q.~. X~.G.e         : s J.Q.~.~.Q.Q.~.~.~.~.Q.Q.Q.Q.Q.Q.Q.Q.Q.E.E.Q.Q.Q.Q.Q.Q.~.~.~. X+XOXk %       X e E.Q.E.E.Q.Q.E.E.J.Q.J.J.E.E.Q.~.~.E.J.",
"G.J.Q.Q.Q.Q.Q.J.J.Q.~. X'.G.w         : s J.Q.~.~.~.~.~.~.~.~.~.~.~.~.~.Q.Q.Q.Q.Q.Q.Q.Q.Q.Q.Q.~.~.~.~. X+XOXk %       X r E.Q.E.Q.Q.Q.Q.Q.J.Q.J.J.Q.E.Q.~.~.E.G.",
"J.J.Q.Q.Q.Q.Q.J.Q.~. X X'.G.r .       : s Q.Q.~.~.~.~.~.~.~.~.~.~.~.~.~.~.~.~.~.Q.~.~.~.~.~.~.~.~.~.~. X+XOXk %       X r E.Q.~.Q.Q.Q.Q.Q.Q.J.Q.Q.Q.E.Q.~.~.E.G.",
"Q.Q.~.~.Q.E.Q.Q.~.~.~.+X XG.r .       : l E.Q.~.~.~. X~.~. X~.~.~.~.~.~.~.~.~.~.~.~.~.~.~.~.~.~.~.~. X X+XOXl %       X r ].Q.~.~.E.E.E.E.Q.Q.Q.E.Q.~.~.+X+XE.J.",
"Q.~.~.~.~.~.E.Q.~.~.~.+X+XG.r .       : l E.~.~.~.~. X~. X X~.~.~.~.~.~.~.~.~.~.~.~.~.~.~.~.~.~.~.~. X.XOX*Xl %       X r ].E.'.~.~.~.~.E.E.E.E.E.E.~.~.+X+X'.L.",
"~.~.~.~.~.~.E.Q.~.~. X+X+XJ.r .       : l '.~. X~.~.~.~.~.~. X~.~.~.~.~.~.~.~.~.~.~.~.~.~.~.~.~. X X X+XOX*Xl %       X r '.E.~.~.~.~.~.~.~.E.E.~.~.~.~.+X+X'.E.",
"+X~.~.E.Q.~.E.E.~.~. X+X+XQ.r .       : l '.'.+X~.'.'.~.'.'.'.~.~.'.'.~.~.~.~.~.~.~.~.'.~.~.~.~. X X+X+XOX*Xl %       X r '.E.~.~.~.~.~.E.~.~.~.~.'.'.'.+X+X+X~.",
"+X~.Q.E.E.E.E.E.E.E.~.'.~.G.r .       : l '.'.'.'.].].E.E.E.~.E.E.E.E.E.E.E.E.E.E.E.E.E.E.E.E.E.E.'.'.'.+XOXk %       . r &XE.E.].].E.E.E.E.E.E.E.E.].].'.+X'.E.",
"G.N M M M M M M M M M M M v w .       & d N M M M M M m m m m m m m m m m m m m m m m m m m m m m M M M M G.a @       . w G.M M M M M M M M M M m m m m N N m v ",
"r e e e w e w e e e r e w 4 :         @ , w w w w w w w w w w 4 4 4 4 4 4 4 4 4 4 4 4 4 4 w w w w w e e w r , .         : e w w w e e w w w w w w w w e e e 4 4 ",
"O X X X X X X X X @ @ @ X .               . . . . . . . . . . . . . . . . . . . . . . . . . . . X X X X @ X .             . . X X X X X X X X X X X X X X X .   "
};
