/* XPM */
static char *_64539b8c5ce401cf1f80e5865085a1cZ0iWqNb0XGEB3cJX[] = {
/* columns rows colors chars-per-pixel */
"80 80 221 2 ",
"   c #010101",
".  c #020609",
"X  c #030A0D",
"o  c #0B0B0B",
"O  c #090606",
"+  c #130D09",
"@  c #160C05",
"#  c #1F1003",
"$  c #1B130D",
"%  c #010112",
"&  c #020E12",
"*  c #080E11",
"=  c #021215",
"-  c #01131A",
";  c #031A1C",
":  c #081717",
">  c #131313",
",  c #1B1C1C",
"<  c #251201",
"1  c #2A1604",
"2  c #341A01",
"3  c #3B1E01",
"4  c #301A08",
"5  c #271A10",
"6  c #291B11",
"7  c #3A2312",
"8  c #021C23",
"9  c #021F2A",
"0  c #1C1D23",
"q  c #021035",
"w  c #0C2825",
"e  c #01252C",
"r  c #022C2E",
"t  c #072426",
"y  c #142B2A",
"u  c #032D32",
"i  c #022E39",
"p  c #02323C",
"a  c #083537",
"s  c #153936",
"d  c #1E302A",
"f  c #242524",
"g  c #313131",
"h  c #3C3C3C",
"j  c #13201E",
"k  c #462910",
"l  c #5B3819",
"z  c #492A0F",
"x  c #453627",
"c  c #553A24",
"v  c #19423A",
"b  c #3E463D",
"n  c #5D4128",
"m  c #754D2A",
"M  c #75512F",
"N  c #080959",
"B  c #05104F",
"V  c #023643",
"C  c #023945",
"Z  c #013C49",
"A  c #093C4A",
"S  c #3B3B42",
"D  c #04086B",
"F  c #111373",
"G  c #20216F",
"H  c #024247",
"J  c #02444A",
"K  c #09424B",
"L  c #1A4744",
"P  c #024A55",
"I  c #014E5B",
"U  c #054855",
"Y  c #02525D",
"T  c #055A5A",
"R  c #15534D",
"E  c #215752",
"W  c #324C43",
"Q  c #28645D",
"!  c #014F62",
"~  c #025463",
"^  c #015A63",
"/  c #015D6B",
"(  c #075867",
")  c #015E71",
"_  c #01616D",
"`  c #0B6161",
"'  c #016374",
"]  c #006679",
"[  c #006D7D",
"{  c #056973",
"}  c #00717D",
"|  c #08786B",
" . c #297B72",
".. c #277A70",
"X. c #2B756C",
"o. c #735E41",
"O. c #88572B",
"+. c #99683A",
"@. c #966637",
"#. c #8E643B",
"$. c #A66E35",
"%. c #A46D39",
"&. c #AA723C",
"*. c #B77B3D",
"=. c #9A7448",
"-. c #B47B43",
";. c #BA7D43",
":. c #A57443",
">. c #118B79",
",. c #9B915A",
"<. c #B78950",
"1. c #809868",
"2. c #BE9C77",
"3. c #A0846B",
"4. c #C68544",
"5. c #CC8946",
"6. c #CA8A49",
"7. c #C88646",
"8. c #D28D49",
"9. c #DC954B",
"0. c #D89248",
"q. c #DD9D5A",
"w. c #D99854",
"e. c #E0964A",
"r. c #E1984B",
"t. c #DDA66A",
"y. c #C09C75",
"u. c #03048C",
"i. c #030583",
"p. c #131589",
"a. c #050799",
"s. c #051797",
"d. c #0004AD",
"f. c #0203A3",
"g. c #031DA2",
"h. c #0104B0",
"j. c #0425A1",
"k. c #04279F",
"l. c #016E82",
"z. c #096F84",
"x. c #007285",
"c. c #007587",
"v. c #007686",
"b. c #007485",
"n. c #007986",
"m. c #007986",
"M. c #007589",
"N. c #007689",
"B. c #00758A",
"V. c #00768B",
"C. c #00758C",
"Z. c #00768D",
"A. c #00758F",
"S. c #00768F",
"D. c #00758A",
"F. c #007989",
"G. c #00798D",
"H. c #007A8B",
"J. c #007590",
"K. c #007691",
"L. c #007792",
"P. c #007790",
"I. c #007991",
"U. c #007B92",
"Y. c #077998",
"T. c #085F92",
"R. c #76759C",
"E. c #004EFA",
"W. c #0052FC",
"Q. c #2C70EF",
"!. c #857B92",
"~. c #038489",
"^. c #048787",
"/. c #069888",
"(. c #099889",
"). c #008193",
"_. c #018399",
"`. c #129A8A",
"'. c #329C91",
"]. c #319389",
"[. c #16AC9D",
"{. c #0DA18F",
"}. c #22A692",
"|. c #3DB8AB",
" X c #41BDB2",
".X c #36C5B8",
"XX c #41C9BB",
"oX c #4E86F1",
"OX c #4F85EE",
"+X c #6896ED",
"@X c #6394F1",
"#X c #7FA6EB",
"$X c #3ECEC0",
"%X c #36D1C1",
"&X c #3AD4C4",
"*X c #3DDDCC",
"=X c #3AD8C6",
"-X c #3FDFD0",
";X c #3FE1CF",
":X c #3FE0D0",
">X c #42DDCD",
",X c #43D4C5",
"<X c #41E2D2",
"1X c #A79290",
"2X c #B1B1B1",
"3X c #B4AEA7",
"4X c #9A8D96",
"5X c #E5BB8C",
"6X c #C2AF98",
"7X c #E7C59C",
"8X c #E0CDB6",
"9X c #88A8E2",
"0X c #EEDBC2",
"qX c #F1DFC8",
"wX c #F6EBDB",
"eX c #F2E3CE",
"rX c #E9F1F9",
"tX c #FDFEFE",
"yX c #F7FBFA",
"uX c #FBF8EE",
"iX c #D1D1D1",
/* pixels */
"] l.C.C.C.C.C.C.C.C.K.K.K.K.K.K.K.C.C.C.C.C.K.K.K.K.K.K.K.K.K.U.U.H.T -       & [ U.U.U.U.U.U.K.K.K.K.K.K.K.K.K.K.K.K.K.K.K.K.K.K.K.K.K.K.K.U.U.U.G.} e .     . ",
"[ l.B.C.C.C.C.C.C.C.K.K.K.K.C.C.C.C.C.C.C.C.K.K.C.C.C.C.C.U.U.U.U.G.^ ;       X ] U.U.U.U.U.K.K.K.K.K.K.K.K.K.K.C.C.K.K.K.K.K.K.K.K.K.K.K.U.U.U.U.G.} e .     . ",
"[ x.M.M.C.C.M.C.C.C.C.K.C.C.C.C.C.C.C.C.C.C.C.C.C.C.C.C.C.C.G.U.U.G./ -       X ) M.C.U.U.U.K.K.C.K.C.C.C.C.C.C.C.C.C.C.C.C.C.C.C.C.C.C.C.K.G.U.U.G.[ e .       ",
"[ x.c.M.M.M.M.M.M.C.C.C.C.C.C.C.C.C.C.C.C.C.C.C.M.M.C.C.C.M.G.G.G.c.~ =       & / x.M.G.G.G.C.C.C.C.C.C.C.C.C.C.C.C.C.C.C.C.C.C.C.C.C.C.C.C.G.U.U.H.[ e .       ",
"[ l.x.c.c.M.c.c.M.M.M.M.M.M.M.M.M.M.M.M.M.M.M.M.M.M.M.M.M.M.M.G.G.x.~ =       & ^ l.c.M.G.M.M.M.M.M.M.M.M.M.M.M.M.M.M.M.M.M.M.M.M.M.M.M.M.M.C.G.G.H.[ e .       ",
"[ l.x.c.c.c.c.x.x.c.c.c.M.M.M.M.M.M.M.M.M.M.M.c.c.M.M.c.c.c.M.H.G.x.~ =       & ^ [ x.M.M.M.M.M.M.M.M.M.M.M.M.M.M.M.M.M.M.M.M.M.M.M.M.M.M.M.M.G.G.H.[ e .       ",
"[ l.x.c.c.x.c.c.x.c.c.c.M.M.M.M.M.H.M.M.M.M.M.c.c.M.M.c.c.c.M.H.G.x.~ =       & ^ [ x.M.M.M.M.M.M.M.M.M.H.H.M.M.H.H.M.M.M.M.M.M.M.M.M.M.M.M.H.G.G.H.[ e .       ",
"} x.x.x.c.x.c.c.c.c.c.c.c.c.c.c.c.M.M.M.c.c.c.c.c.M.c.c.c.c.H.H.H.x.~ -       X ^ } c.M.M.M.M.H.H.H.H.H.H.H.H.H.M.H.H.M.M.M.H.M.c.M.M.M.c.H.H.H.H.H.[ e .       ",
"b.x.x.x.x.x.b.b.b.b.b.b.b.b.b.b.b.c.c.c.c.b.b.c.c.c.c.b.b.c.c.n.n.b.~ -       X / x.c.M.H.n.n.n.n.n.n.H.n.n.n.n.n.n.n.c.c.c.n.c.c.c.c.c.n.n.n.H.H.n.[ e .       ",
"x.l.[ [ [ [ [ [ [ [ [ [ [ [ [ [ [ [ [ [ l.[ [ [ } [ [ } [ [ [ [ [ [ ! =       X ( l.l.l.x.x.x.x.x.x.x.b.b.x.x.x.x.} } x.x.x.x.x.x.[ [ } [ } } } } [ / 8         ",
"~ ~ I I I Y I I I I I I I I I I I I I I I I I I I I I Y I I I P P P V X       . K I I I I Y Y Y Y Y Y Y Y Y Y Y Y Y Y Y Y Y Y Y Y I I I I I P P P U Z -         ",
"- - - - - - - - = = = & & & & & & & & & = = & = = = = = = & & & & & X           X = = & = = = = = = = = = = = = = = = = = = = = = & & & & & & & & & X           ",
"                                                                                                                                                                ",
"                                                                                                                                                                ",
"                                                                                                                                                                ",
"                                                                                                                                                                ",
"e r r r r r r r r r r r u u :         X 8 u u r r r r r r r r r r r u u u u u u u u u u u u u u r u u u u a t .       . ; r r r r r r r r r r r r r r r u r r t ",
"~ ~ ~ ~ ^ ^ T ^ ^ ^ ^ ^ / ( a .       ; C ^ ^ ^ ^ ^ ^ ^ ^ ^ ^ ^ ^ ^ ^ ^ ^ ^ ^ ^ ^ ^ ^ ^ ^ ^ ^ ^ ^ ^ ^ / / { K =       . u ~ ^ ^ T ^ ^ T T ^ ^ ^ ^ ^ ^ ^ ^ ^ ( Y ",
"c.M.c.b.b.c.b.c.c.c.H.G.U.v.H .       8 Y c.c.c.c.n.H.n.c.c.c.c.c.c.n.c.c.c.c.c.c.c.c.c.c.M.M.M.M.H.H.G.U.).^ ;       X Z c.c.b.b.b.b.b.b.c.c.b.c.n.n.n.c.H.c.] ",
"M.M.M.c.c.c.c.c.c.M.H.G.G.x.Z .       t ~ M.M.M.M.H.H.M.M.M.M.M.M.M.M.M.M.M.M.M.c.M.M.c.M.M.M.M.H.G.G.G.U.).~ -       X J H.x.c.c.c.c.c.c.b.c.c.c.M.H.H.H.H.M.z.",
"M.M.M.c.c.c.c.c.c.M.H.G.G.x.Z .       t ~ c.M.M.M.M.C.M.M.M.M.M.M.M.M.M.M.M.M.B.B.M.M.M.M.M.B.M.M.M.C.U.U.).~ -       X J M.x.c.c.c.c.c.c.c.c.c.c.M.M.H.H.H.c.z.",
"x.x.c.c.c.c.c.c.x.M.M.G.G.l.C .       t ~ c.M.M.M.C.C.M.C.M.C.M.M.M.M.M.M.M.M.B.B.M.M.M.M.M.B.B.B.M.C.U.U.U.~ -       & Z c.x.c.c.c.c.c.c.c.c.c.c.M.M.H.H.n.c.x.",
"x.x.c.c.c.c.x.x.x.M.M.G.G.l.Z .       e ~ x.x.M.M.M.M.M.M.M.M.M.M.M.M.M.M.M.M.M.M.M.M.M.M.M.B.B.B.M.C.G.U.U.~ -       & Z c.x.c.c.c.c.b.c.x.c.c.c.c.c.c.n.n.H.H.",
"B.x.c.x.x.c.x.x.x.M.M.C.G.l.Z .       e ~ c.M.M.M.M.M.M.M.M.M.M.M.M.M.M.M.M.B.M.M.M.M.M.M.M.M.M.M.C.C.U.U.U.~ -       & Z c.x.c.c.c.c.c.c.b.c.c.c.c.c.c.M.n.n.H.",
"M.B.x.c.c.c.x.x.x.B.M.C.G.l.Z .       e ~ c.M.M.M.M.M.M.M.M.M.M.M.M.M.M.M.M.B.M.M.M.M.M.M.M.M.M.M.M.C.G.U.U.! -       & Z c.x.c.c.c.c.c.c.c.c.c.c.c.c.M.H.H.n.n.",
"B.x.x.x.M.c.x.x.x.B.M.G.H.l.Z .       e ~ M.B.M.M.C.C.C.M.M.M.M.M.M.M.M.M.M.B.M.M.M.M.M.M.M.M.B.M.C.C.G.U.U.! -       & J c.x.x.c.c.c.c.c.c.c.c.c.c.M.c.H.H.n.m.",
"x.x.x.x.x.x.M.M.M.M.M.G.G.l.Z .       e ~ M.M.M.C.C.C.M.C.C.M.M.M.M.M.M.M.M.M.M.M.M.B.M.M.M.B.M.C.C.C.U.U.U.! -       & J c.x.x.c.M.c.x.x.c.c.c.M.M.M.c.c.n.n.n.",
"x.x.M.c.c.c.c.M.M.M.M.G.G.x.Z .       e ~ M.M.G.C.C.C.M.G.G.M.M.M.M.M.M.M.M.M.M.M.M.M.M.M.M.M.M.C.C.C.U.U.U.~ -       & J c.M.M.c.c.M.c.c.c.c.c.c.x.M.c.c.c.n.n.",
"x.c.M.M.M.c.M.M.M.M.G.G.G.x.Z .       e ~ H.H.G.G.G.G.G.G.G.U e e e e e e e e e e e e e e r e Y C.G.U.U.U.).~ -       & J n.M.H.H.H.H.M.c.c.c.M.c.c.M.M.H.n.n.b.",
"b.c.M.M.n.c.c.M.M.H.G.U.G.c.Z .       e ^ H.H.G.G.G.G.G.G.G.u                                 C G.G.G.U.)._.~ -       X J H.H.H.H.H.H.c.c.n.c.M.c.c.n.H.H.n.n.b.",
"n.n.c.n.c.c.c.c.H.H.G.U.G.c.Z .       e ^ H.H.G.G.G.G.H.Y K , @ @ < # # # # # # # # # # # # # y K ~ G.U.)._.~ -       X J ~.H.H.H.n.n.n.n.n.n.n.n.n.n.n.m.m.n.b.",
"H.H.H.H.H.H.H.H.H.G.).).).M.Z .       e _ ).~.~.G.G.).H.;   @ < 2 3 3 3 3 3 3 3 3 3 3 3 3 3 3 #   u U.).)._.~ -       . J _.G.G.H.n.n.n.n.n.n.n.n.n.n.n.m.H.H.x.",
"~ ^ ^ ~ ~ ~ ^ ^ ^ ^ ^ ^ ~ I u .       ; J _ / / / / / ^ -   < 1 2 2 2 3 3 3 3 3 3 3 3 3 3 3 3 1 @ j J U _ ' Z &       . p { ' ' ' _ ' ' _ _ _ _ _ _ / _ _ _ / ( ",
"t e e e e e e e e e e t 8 8 &         X 8 u u u u u u e .   1 3 2 < 1 3 3 3 3 3 3 3 3 3 3 3 3 3 3 1   X i i 8           ; V p p p V V V p p p p p p p p p p i u ",
"  . . . . . . . . . . . .                 . . . . . . .     < 3 2 1 1 2 2 2 2 2 2 2 2 2 2 2 2 2 2 1 O O o o .             . . . . . . . . . . . . . . . . . . . ",
"                                                            < 3 3 3 2 < < < < < < < < < < < < < < < < #                                                         ",
"                                                            7 l k 3 2 < 4 k k k k k k k k k k k k k k 7 O                                                       ",
"                                                          O #.8.m 3 2 < l 7.5.5.5.5.5.5.5.5.5.5.5.5.5.:.+                                                       ",
"                                                      O   O +.r.O.z 3 < l 0.9.q.q.q.q.q.q.9.9.w.q.q.q.<.+                                       O O             ",
"J J J J J J H H J J J H J J J J J J J J J J H H H H H C & O +.e.5.4.O.< l 0.t.eXwXwXwXwXwX5X0.5XwXwXwX8X> . C J J J J J J J J J J J J J J J J J J H i X         ",
"[ x.x.} } } } } } } } } } } } } } } } } } } } } } [ [ { ; O +.9.9.e.@.< l 0.t.uXtXyXyXyXyX5X0.7XyXyXtXiX> X ' x.b.b.b.b.b.x.x.x.} } } } } [ x.x.x.} Y ;         ",
"c.M.M.c.c.c.c.c.c.c.n.n.c.c.c.c.n.n.n.n.n.c.c.n.n.n.n.x.; O +.9.9.9.*.m =.0XeXtXrX+XoXoXOX1X9.4XoX9XtXiX> X ' c.c.c.c.c.c.c.c.c.c.c.c.c.c.c.H.G.G.H./ ;         ",
"M.M.M.H.n.M.c.c.c.c.M.M.c.n.c.c.M.c.M.M.M.M.M.M.M.M.M.x.; O +.9.9.9.4.$.y.yXtXtXrXQ.W.W.W.!.e.R.E.oXtXiX> X ' c.c.c.c.c.c.c.c.M.M.M.M.M.M.M.G.U.).H./ 8         ",
"M.M.M.M.H.M.c.M.M.M.M.M.M.c.c.c.M.M.M.M.M.M.M.M.M.M.M.l.; O +.9.9.9.4.$.2.yXtXtXrXQ.W.W.W.!.e.R.W.oXtXiX> X ' c.c.c.c.c.c.c.c.c.M.M.M.M.M.M.G.U.U.H./ 8         ",
"c.x.c.M.c.M.c.M.M.c.M.M.M.M.c.M.M.M.M.M.M.c.c.M.M.M.c.l.; O +.9.9.9.4.$.2.yXtXtXrXQ.E.W.W.!.e.R.E.oXtXiX> X ' c.c.c.M.M.c.c.x.M.M.M.M.C.M.C.C.U.U.H.) 8         ",
"x.x.c.M.c.H.c.c.c.c.c.c.M.M.M.M.M.M.c.M.M.M.c.M.M.M.B.l.; O +.9.9.9.4.$.<.8X0XyXrX9X@X@X+X1X9.1X@X9X0X6X> X ' c.M.c.M.M.M.c.M.M.M.M.M.M.C.C.C.U.U.G.) 8         ",
"x.x.M.M.c.M.c.c.c.c.c.M.c.c.c.c.M.M.M.M.M.M.B.M.M.M.B.l.;   +.r.9.9.4.$.*.0.t.uXtXtXtXtXtX5X9.7XtX0Xw.-.+ X ' c.c.B.B.M.M.M.B.M.M.M.M.M.C.C.C.U.U.G.' 8         ",
"x.x.B.M.c.c.c.c.c.M.M.M.M.c.c.M.M.M.B.M.M.M.M.l.~ ~ ~ ( L L o.+.<.9.4.$.*.0.w.3X2X2X2X2X2X3.@.2.qX7X9.-.+ . U ~ l.B.B.M.M.M.B.M.M.M.B.C.C.C.C.U.U.G.' 8         ",
"x.x.B.M.c.x.c.c.M.M.M.M.M.M.M.M.M.M.B.M.M.M.M.) .     : |.,XL   M r.4.$.*.9.-.+       O O O   n w.9.e.-.+     . / B.B.M.M.M.B.M.C.C.C.C.C.C.K.U.U.G.' 8         ",
"c.x.B.M.c.c.M.M.M.M.M.M.M.M.M.M.M.M.M.M.M.x.' ( y w w s .X>XQ w M -.&.$.*.9.;.7 5 5 5 5 5 5 5 M 9.8.-.=.d w w y ( ] l.C.C.M.M.B.C.C.C.C.C.C.C.U.U.C.' 8         ",
"c.M.M.H.H.M.M.M.M.M.M.M.M.M.M.M.M.M.M.M.M.~ X s XX$XXX$X*X*X&XXXQ + c &.*.9.0.5.5.6.6.6.6.6.6.8.e.%.@ d  X$X$XXXs X ~ C.C.C.C.C.C.G.C.C.G.G.U.U.U.G.' 8         ",
"c.M.H.G.H.H.H.M.M.M.M.M.M.M.M.H.M.C.C.C.H.Y   s &X*X:X:X:X:X<X<XX.X x +.&.7.6.6.6.6.6.6.6.6.6.6.6.#.* s ,X:X*X&Xs   I C.C.C.C.C.C.G.C.C.G.U.G.U.U.G.[ e         ",
"n.H.H.H.H.H.H.H.H.H.H.M.H.H.H.H.H.H.G.H.H.Y   t `.[.*X:X:X;X;X:X.X|.X.5 5 5 5 5 5 5 5 5 5 5 5 5 5 W |.|.>X*X[.`.w   I C.G.C.M.C.G.G.C.G.G.G.G.U.U.G.[ e         ",
"H.H.H.H.H.n.n.n.n.n.H.n.n.H.H.H.H.H.H.H.H.Y O w >.`.=X*X-X-X>X*X*X<X].. . . . . . . . . . . .     L >X:X*X=X`.>.w O Y H.H.M.H.H.H.H.H.H.H.H.H.G.G.H.] e         ",
"U.G.G.H.H.H.H.H.H.H.H.H.H.G.G.G.G.G.G.( u b +.=.,.1.}.[.=X>XX.v '.<X.X'.'.'.'.'.'.'.'.'.'.'.'.E   L >X=X[.}.1.,.=.+.b u Y G.G.G.G.G.G.H.G.G.H.G.G.M.[ e         ",
"U P P P P P P P P P P P P I I I I I I u   c 9.9.e.<.>./.%X>Xv   ..<X:X<X<X<X<X<X<X<X<X<X<X<X<X .  L >X%X/.>.<.e.e.9.c   e Y Y Y Y Y Y Y I I I I I P J ;         ",
"  . . X X X X X X X X X X & & & & & = *   c 9.9.9.<.v a R E :    .<X:X:X:X:X:X:X:X:X:X:X:X:X<X .  : E R a v <.9.9.9.c   X ; - - ; ; ; ; - - - = = & X           ",
"                                . . . o   c 9.9.9.-.+            .<X:X:X:X:X:X:X:X:X:X:X:X:X<X .          + -.9.9.9.c                                           ",
"                                      O   c 0.9.9.7.m n +        .<X<X:X:X:X:X:X:X:X:X:X:X:X<X .      + n m 7.9.9.9.c                                           ",
"                                      O   c 0.9.9.9.9.6.6        .<X:X:X:X:X:X:X:X<X<X:X:X:X<X .      6 6.9.9.9.9.9.c                                           ",
"  .             . . . O .             O   c 0.9.9.9.9.5.5        .<X:X:X:X:X:X:X:X:X:X:X:X:X<X .      6 6.9.9.9.9.9.c                                 .     . . ",
"; ; ; ; = = = = : : = = : * o         o   c 9.9.9.9.9.5.6        .<X<X<X<X<X<X<X<X<X:X:X:X:X<X .      5 5.e.9.9.9.9.c   o = - = = = = = = - - = = = ; ; : : : = ",
"Y ~ Y Y Y Y Y Y Y Y Y Y ~ U t         * X x -.-.-.-.-.:.f = .   X.=X%X%X%X%X%X%X%X%X%X*X:X:X<X .  . = f :.-.-.-.-.-.x   8 Y Y Y Y Y Y Y Y Y Y Y Y Y Y Y ^ ^ Y U ",
"M.C.G.H.H.H.n.M.M.G.U.U.).x.C         8 I U + + + + + > ' x.r   R /./././././././././..X<X:X<X .  e B.{ > + + + + + o . C G.C.H.H.H.H.H.H.H.H.H.H.H.H.H.U.).G.} ",
"c.B.M.M.c.M.x.B.B.B.M.U.U.l.C         8 I Y & X X & & - ' l.i % U ~.~.~.~.~.~.~.~.~.~..X*X*X*X .X i x.' ; & X         . C H.M.M.M.M.M.c.c.c.c.c.c.c.M.M.G.U.H.[ ",
"x.B.B.M.B.M.x.B.B.B.C.U.G.l.C .       8 I l.] ' ' ] ] ' u 8 D u.s.g.g.g.g.g.g.g.g.g.g.Y.{.`.{.>.| T ; u ] l.P =       . C G.M.M.M.M.M.M.M.x.x.M.M.M.M.M.G.U.H.l.",
"x.B.B.M.M.B.x.B.x.B.C.C.G.l.V .       8 I B.B.B.M.M.B.l.8 % D h.d.d.d.d.d.d.d.f.f.d.d.T.^.^.^.^.^.` X 8 B.U.! -       . C M.B.M.M.M.M.M.c.x.x.x.x.x.M.M.G.U.M.l.",
"x.l.B.M.M.x.x.x.x.x.B.C.C.l.V .       8 I B.B.M.B.[ u 9 D i.a.d.d.d.d.d.d.d.u.q q u.d.g.k.j.j.j.j.s.i.D 9 u I -       . C M.x.M.M.M.M.c.c.x.x.x.x.x.B.M.G.U.M.x.",
"l.l.x.B.M.B.B.l.x.B.C.K.G.l.C .       8 I B.B.C.C.] X % u.h.d.d.d.d.d.d.d.d.u.% % u.d.d.d.d.d.d.d.d.h.u.% X U -       X C M.B.M.M.B.B.M.M.x.x.x.x.x.B.B.C.G.M.x.",
"l.l.B.B.B.B.x.x.B.B.C.K.C.l.C         8 I x.B.[ V u . % u.d.d.d.d.d.d.d.u.B B I I B B u.d.d.d.d.d.d.d.u.% . 8 X       X C M.B.M.M.B.B.M.M.x.B.x.x.M.M.B.C.C.M.x.",
"l.x.B.B.B.B.B.x.x.B.C.K.G.l.V         8 I x.B.) .     % u.d.d.d.d.d.d.h.D   ; l.x.; . D h.d.d.d.d.d.d.u.%             X Z M.B.M.B.B.B.B.B.x.B.x.x.B.M.B.C.C.M.l.",
"x.x.B.B.B.B.B.x.x.C.K.K.G.l.Z .       8 a U J A 0 , , 0 G G a.d.d.d.u.N B A U B.B.U A B D u.d.d.d.a.G G 0 , , , o O O X p M.B.C.B.B.B.B.B.B.x.B.B.B.M.B.C.C.M.l.",
"B.B.C.C.B.M.B.B.C.C.C.U.K.l.Z .       :       o h h h h h S p.d.d.d.D   u C.C.C.C.C.C.u   D h.d.d.p.S h h h h h o       8 H.B.C.C.M.M.M.M.B.B.B.M.B.C.C.U.U.M.x.",
"B.C.C.C.C.C.M.B.C.C.C.U.U.l.Z .       : > > > , h h h h h h G p.p.p.B   u C.C.C.C.C.C.u   B p.p.p.G S h h h h h , > > > t ~ ) C.C.C.C.C.M.M.M.M.M.M.C.C.U.U.G.c.",
"C.C.C.C.C.C.M.B.C.C.K.U.U.B.Z .       f h h h h h h h h h h S S S S f   u C.C.C.C.C.C.u   f S S S S h h h h h h h h h h f   r M.C.C.C.C.C.C.M.M.C.C.C.C.U.U.G.M.",
"U.C.C.M.B.C.M.M.C.C.K.U.U.B.Z .       , g g g g g g g g g g g g g g ,   u M.C.C.C.C.C.u   , g g g g g g g g g g g g g g ,   e M.C.C.C.C.M.C.C.C.C.G.G.G.U.U.U.C.",
"U.C.B.M.M.M.M.M.M.M.C.G.C.l.Z .         O O O O O O O . O O O O O O     u M.M.M.M.M.M.u     O O O O O O . O . O O O O O     e M.H.H.M.M.M.M.M.M.M.M.H.H.G.U.G.M.",
"l.[ ] ] ' ] ] ] ] ] ] ] ] ) V .       . X = & & & & & & & & & & & & & X u ' ' ' ' ' ' u & & & & & & & & & = X           . & i ] ] ] ] ] ] ] ] ] ' ' ' ' [ [ ' ) ",
"A C C C V C V C C Z Z C V i 8         & t p p p p p p p p p p i i i i i i p p p p p p p i p p p p p p p p V 9 .         8 V p V V C C V V V V V V V V C C C p p ",
"o X X X X X X X X & & & X .               . . . . . . . . . . . . . . . . . . . . . . . . . . . X X X X & X .             . . X X X X X X X X X X X X X X X . O "
};
