/* XPM */
static char *e9eebd45bfc64c51dbc92d96638007b8cyeljbqeZPbin5NG[] = {
/* columns rows colors chars-per-pixel */
"80 80 2 1 ",
"  c gray42",
". c gray47",
/* pixels */
"................................................................................",
"................................................................................",
"................................................................................",
"................................................................................",
"....            ....................................................        ....",
"....            ....................................................        ....",
"....            ....................................................        ....",
"....            ....................................................        ....",
"....            ........................        ................            ....",
"....            ........................        ................            ....",
"....            ........................        ................            ....",
"....            ........................        ................            ....",
"....................................        ............................    ....",
"....................................        ............................    ....",
"....................................        ............................    ....",
"....................................        ............................    ....",
"....................................            ................................",
"....................................            ................................",
"....................................            ................................",
"....................................            ................................",
"............            ................................        ................",
"............            ................................        ................",
"............            ................................        ................",
"............            ................................        ................",
"............            ........................................................",
"............            ........................................................",
"............            ........................................................",
"............            ........................................................",
"................................................................................",
"................................................................................",
"................................................................................",
"................................................................................",
"........................................        ............        ............",
"........................................        ............        ............",
"........................................        ............        ............",
"........................................        ............        ............",
"................................                ................................",
"................................                ................................",
"................................                ................................",
"................................                ................................",
"............        ............    ............................................",
"............        ............    ............................................",
"............        ............    ............................................",
"............        ............    ............................................",
"........            ............................................................",
"........            ............................................................",
"........            ............................................................",
"........            ............................................................",
"................................................................................",
"................................................................................",
"................................................................................",
"................................................................................",
"........    ................................................        ............",
"........    ................................................        ............",
"........    ................................................        ............",
"........    ................................................        ............",
"....        ........................        ............            ............",
"....        ........................        ............            ............",
"....        ........................        ............            ............",
"....        ........................        ............            ............",
"....    ............................        ....................................",
"....    ............................        ....................................",
"....    ............................        ....................................",
"....    ............................        ....................................",
"....................................        ....................................",
"....................................        ....................................",
"....................................        ....................................",
"....................................        ....................................",
"....        ........................................................        ....",
"....        ........................................................        ....",
"....        ........................................................        ....",
"....        ........................................................        ....",
"....        ................................................                ....",
"....        ................................................                ....",
"....        ................................................                ....",
"....        ................................................                ....",
"................................................................................",
"................................................................................",
"................................................................................",
"................................................................................"
};
