/* XPM */
static char *c803b4f79d7d4f89e9cde596ba86f03am8Ba09SYHAQMecXL[] = {
/* columns rows colors chars-per-pixel */
"80 80 2 1 ",
"  c #BE8E4C",
". c #C79E66",
/* pixels */
"    ....    ....................................................    ........    ",
"    ....    ....................................................    ........    ",
"    ....    ....................................................    ........    ",
"    ....    ....................................................    ........    ",
"    ....    ................................................................    ",
"    ....    ................................................................    ",
"    ....    ................................................................    ",
"    ....    ................................................................    ",
"    ....    ................................................................    ",
"    ....    ................................................................    ",
"    ....    ................................................................    ",
"    ....    ................................................................    ",
"    ....................................................    ................    ",
"    ....................................................    ................    ",
"    ....................................................    ................    ",
"    ....................................................    ................    ",
"    ....................    ............................    ................    ",
"    ....................    ............................    ................    ",
"    ....................    ............................    ................    ",
"    ....................    ............................    ................    ",
"    ....................    ........    ............    ....................    ",
"    ....................    ........    ............    ....................    ",
"    ....................    ........    ............    ....................    ",
"    ....................    ........    ............    ....................    ",
"    ....................    ........    ................    ................    ",
"    ....................    ........    ................    ................    ",
"    ....................    ........    ................    ................    ",
"    ....................    ........    ................    ................    ",
"    ....................    ........    ................    ................    ",
"    ....................    ........    ................    ................    ",
"    ....................    ........    ................    ................    ",
"    ....................    ........    ................    ................    ",
"    ....................    ........    ....................................    ",
"    ....................    ........    ....................................    ",
"    ....................    ........    ....................................    ",
"    ....................    ........    ....................................    ",
"    ....................    ................................................    ",
"    ....................    ................................................    ",
"    ....................    ................................................    ",
"    ....................    ................................................    ",
"    ........................................................................    ",
"    ........................................................................    ",
"    ........................................................................    ",
"    ........................................................................    ",
"    ........................................................................    ",
"    ........................................................................    ",
"    ........................................................................    ",
"    ........................................................................    ",
"    ....................................................    ................    ",
"    ....................................................    ................    ",
"    ....................................................    ................    ",
"    ....................................................    ................    ",
"    ................    ................................    ................    ",
"    ................    ................................    ................    ",
"    ................    ................................    ................    ",
"    ................    ................................    ................    ",
"    ............        ....................................................    ",
"    ............        ....................................................    ",
"    ............        ....................................................    ",
"    ............        ....................................................    ",
"    ............    ........................................................    ",
"    ............    ........................................................    ",
"    ............    ........................................................    ",
"    ............    ........................................................    ",
"    ............................    ........    ............................    ",
"    ............................    ........    ............................    ",
"    ............................    ........    ............................    ",
"    ............................    ........    ............................    ",
"    ............................    ........    ............................    ",
"    ............................    ........    ............................    ",
"    ............................    ........    ............................    ",
"    ............................    ........    ............................    ",
"    ........................        ........    ................    ........    ",
"    ........................        ........    ................    ........    ",
"    ........................        ........    ................    ........    ",
"    ........................        ........    ................    ........    ",
"    ....    ....................................................    ........    ",
"    ....    ....................................................    ........    ",
"    ....    ....................................................    ........    ",
"    ....    ....................................................    ........    "
};
