/* XPM */
static char *dff0a1da037c4c78f890da172bfbc1e1FMor8l9xfKdVit69[] = {
/* columns rows colors chars-per-pixel */
"80 80 4 1 ",
"  c #C3B36E",
". c #C5B673",
"X c #CCBF85",
"o c #D9CB8E",
/* pixels */
"ooooooooooooooooooooooooooooXXXXooooXXXXoooooooo....ooooooooooooooooooooXXXX    ",
"ooooooooooooooooooooooooooooXXXXooooXXXXoooooooo....ooooooooooooooooooooXXXX    ",
"ooooooooooooooooooooooooooooXXXXooooXXXXoooooooo....ooooooooooooooooooooXXXX    ",
"ooooooooooooooooooooooooooooXXXXooooXXXXoooooooo....ooooooooooooooooooooXXXX    ",
"XXXXooooooooXXXXoooo....oooooooo....ooooooooXXXXoooooooooooo....XXXXoooooooo    ",
"XXXXooooooooXXXXoooo....oooooooo....ooooooooXXXXoooooooooooo....XXXXoooooooo    ",
"XXXXooooooooXXXXoooo....oooooooo....ooooooooXXXXoooooooooooo....XXXXoooooooo    ",
"XXXXooooooooXXXXoooo....oooooooo....ooooooooXXXXoooooooooooo....XXXXoooooooo    ",
"oooooooo....ooooooooooooooooXXXXooooooooooooooooooooooooooooooooooooooooXXXX    ",
"oooooooo....ooooooooooooooooXXXXooooooooooooooooooooooooooooooooooooooooXXXX    ",
"oooooooo....ooooooooooooooooXXXXooooooooooooooooooooooooooooooooooooooooXXXX    ",
"oooooooo....ooooooooooooooooXXXXooooooooooooooooooooooooooooooooooooooooXXXX    ",
"                                                                                ",
"                                                                                ",
"                                                                                ",
"                                                                                ",
"ooooooooooooooooooooooooooooooooXXXX    oooooooooooooooooooooooo........oooooooo",
"ooooooooooooooooooooooooooooooooXXXX    oooooooooooooooooooooooo........oooooooo",
"ooooooooooooooooooooooooooooooooXXXX    oooooooooooooooooooooooo........oooooooo",
"ooooooooooooooooooooooooooooooooXXXX    oooooooooooooooooooooooo........oooooooo",
"XXXXXXXX....ooooXXXXXXXXoooo....oooo    oooo....ooooooooooooXXXXooooooooXXXXoooo",
"XXXXXXXX....ooooXXXXXXXXoooo....oooo    oooo....ooooooooooooXXXXooooooooXXXXoooo",
"XXXXXXXX....ooooXXXXXXXXoooo....oooo    oooo....ooooooooooooXXXXooooooooXXXXoooo",
"XXXXXXXX....ooooXXXXXXXXoooo....oooo    oooo....ooooooooooooXXXXooooooooXXXXoooo",
"oooooooooooooooooooo....oooooooooooo    ooooXXXX....XXXXoooooooooooooooooooooooo",
"oooooooooooooooooooo....oooooooooooo    ooooXXXX....XXXXoooooooooooooooooooooooo",
"oooooooooooooooooooo....oooooooooooo    ooooXXXX....XXXXoooooooooooooooooooooooo",
"oooooooooooooooooooo....oooooooooooo    ooooXXXX....XXXXoooooooooooooooooooooooo",
"                                                                                ",
"                                                                                ",
"                                                                                ",
"                                                                                ",
"ooooooooooooooooooooXXXXooooooooooooooooooooXXXXoooooooooooooooooooo....oooo    ",
"ooooooooooooooooooooXXXXooooooooooooooooooooXXXXoooooooooooooooooooo....oooo    ",
"ooooooooooooooooooooXXXXooooooooooooooooooooXXXXoooooooooooooooooooo....oooo    ",
"ooooooooooooooooooooXXXXooooooooooooooooooooXXXXoooooooooooooooooooo....oooo    ",
"ooooXXXXoooooooo....oooooooooooooooo....oooooooooooo....ooooooooXXXXoooooooo    ",
"ooooXXXXoooooooo....oooooooooooooooo....oooooooooooo....ooooooooXXXXoooooooo    ",
"ooooXXXXoooooooo....oooooooooooooooo....oooooooooooo....ooooooooXXXXoooooooo    ",
"ooooXXXXoooooooo....oooooooooooooooo....oooooooooooo....ooooooooXXXXoooooooo    ",
"ooooooooooooooooooooXXXXooooooooooooooooooooooooooooXXXXooooooooooooXXXXoooo    ",
"ooooooooooooooooooooXXXXooooooooooooooooooooooooooooXXXXooooooooooooXXXXoooo    ",
"ooooooooooooooooooooXXXXooooooooooooooooooooooooooooXXXXooooooooooooXXXXoooo    ",
"ooooooooooooooooooooXXXXooooooooooooooooooooooooooooXXXXooooooooooooXXXXoooo    ",
"                                                                                ",
"                                                                                ",
"                                                                                ",
"                                                                                ",
"ooooXXXXooooooooooooXXXXoooo....oooo    ooooXXXXoooo....XXXXoooooooooooooooooooo",
"ooooXXXXooooooooooooXXXXoooo....oooo    ooooXXXXoooo....XXXXoooooooooooooooooooo",
"ooooXXXXooooooooooooXXXXoooo....oooo    ooooXXXXoooo....XXXXoooooooooooooooooooo",
"ooooXXXXooooooooooooXXXXoooo....oooo    ooooXXXXoooo....XXXXoooooooooooooooooooo",
"oooooooooooo....oooooooooooooooo....    oooooooooooooooooooooooooooo....XXXXoooo",
"oooooooooooo....oooooooooooooooo....    oooooooooooooooooooooooooooo....XXXXoooo",
"oooooooooooo....oooooooooooooooo....    oooooooooooooooooooooooooooo....XXXXoooo",
"oooooooooooo....oooooooooooooooo....    oooooooooooooooooooooooooooo....XXXXoooo",
"ooooooooooooooooXXXXoooooooooooo....    ooooooooooooooooooooXXXXoooooooooooooooo",
"ooooooooooooooooXXXXoooooooooooo....    ooooooooooooooooooooXXXXoooooooooooooooo",
"ooooooooooooooooXXXXoooooooooooo....    ooooooooooooooooooooXXXXoooooooooooooooo",
"ooooooooooooooooXXXXoooooooooooo....    ooooooooooooooooooooXXXXoooooooooooooooo",
"                                                                                ",
"                                                                                ",
"                                                                                ",
"                                                                                ",
"ooooXXXXooooooooooooooooooooooooooooXXXXoooooooooooooooooooooooo....oooooooo    ",
"ooooXXXXooooooooooooooooooooooooooooXXXXoooooooooooooooooooooooo....oooooooo    ",
"ooooXXXXooooooooooooooooooooooooooooXXXXoooooooooooooooooooooooo....oooooooo    ",
"ooooXXXXooooooooooooooooooooooooooooXXXXoooooooooooooooooooooooo....oooooooo    ",
"ooooXXXXooooooooXXXXooooooooXXXX....oooooooooooo........ooooooooXXXXXXXXoooo    ",
"ooooXXXXooooooooXXXXooooooooXXXX....oooooooooooo........ooooooooXXXXXXXXoooo    ",
"ooooXXXXooooooooXXXXooooooooXXXX....oooooooooooo........ooooooooXXXXXXXXoooo    ",
"ooooXXXXooooooooXXXXooooooooXXXX....oooooooooooo........ooooooooXXXXXXXXoooo    ",
"oooooooo....ooooooooooooooooooooooooXXXXooooooooooooooooooooooooooooooooXXXX    ",
"oooooooo....ooooooooooooooooooooooooXXXXooooooooooooooooooooooooooooooooXXXX    ",
"oooooooo....ooooooooooooooooooooooooXXXXooooooooooooooooooooooooooooooooXXXX    ",
"oooooooo....ooooooooooooooooooooooooXXXXooooooooooooooooooooooooooooooooXXXX    ",
"                                                                                ",
"                                                                                ",
"                                                                                ",
"                                                                                "
};
